<svg width="20" height="20" viewBox="0 0 20 20" fill="none" xmlns="http://www.w3.org/2000/svg">
<g clip-path="url(#clip0_3147_2190)">
<path d="M20 8.75016C20 6.68266 18.3175 5.00016 16.25 5.00016H14.1667V2.91683C14.1667 1.7685 13.2325 0.833496 12.0833 0.833496H2.08333C1.531 0.834158 1.00148 1.05386 0.610925 1.44442C0.220367 1.83498 0.000661607 2.3645 0 2.91683L0 15.8335H1.81667C1.72 16.1002 1.66667 16.3793 1.66667 16.6668C1.66667 18.0452 2.78833 19.1668 4.16667 19.1668C5.545 19.1668 6.66667 18.0452 6.66667 16.6668C6.66667 16.3793 6.61333 16.1002 6.51667 15.8335H13.4825C13.3858 16.1002 13.3325 16.3793 13.3325 16.6668C13.3325 18.0452 14.4542 19.1668 15.8325 19.1668C17.2108 19.1668 18.3325 18.0452 18.3325 16.6668C18.3325 16.3793 18.2792 16.1002 18.1825 15.8335H19.9992L20 8.75016ZM16.25 5.8335C17.8583 5.8335 19.1667 7.14183 19.1667 8.75016V10.0002H14.1667V5.8335H16.25ZM5.83333 16.6668C5.83333 17.586 5.08583 18.3335 4.16667 18.3335C3.2475 18.3335 2.5 17.586 2.5 16.6668C2.5 16.371 2.59917 16.091 2.75333 15.8335H5.58C5.73417 16.091 5.83333 16.371 5.83333 16.6668ZM13.3333 15.0002H0.833333V2.91683C0.833333 2.22766 1.39417 1.66683 2.08333 1.66683H12.0833C12.7725 1.66683 13.3333 2.22766 13.3333 2.91683V15.0002ZM17.5 16.6668C17.5 17.586 16.7525 18.3335 15.8333 18.3335C14.9142 18.3335 14.1667 17.586 14.1667 16.6668C14.1667 16.371 14.2658 16.091 14.42 15.8335H17.2467C17.4008 16.091 17.5 16.371 17.5 16.6668ZM14.1667 15.0002V10.8335H19.1667V15.0002H14.1667ZM10.9583 5.54266L11.5475 6.13183L7.2125 10.4677C7.0964 10.5839 6.95851 10.6762 6.80673 10.7391C6.65494 10.8021 6.49224 10.8345 6.32792 10.8345C6.1636 10.8345 6.00089 10.8021 5.8491 10.7391C5.69732 10.6762 5.55943 10.5839 5.44333 10.4677L2.61667 7.8185L3.18667 7.211L6.0225 9.86933C6.06111 9.90964 6.10734 9.94189 6.15851 9.9642C6.20968 9.98651 6.26477 9.99843 6.32058 9.99928C6.3764 10.0001 6.43183 9.9899 6.48365 9.96917C6.53548 9.94843 6.58268 9.91761 6.6225 9.8785L10.9583 5.54266Z" fill="#F13D3D"/>
</g>
<defs>
<clipPath id="clip0_3147_2190">
<rect width="20" height="20" fill="white"/>
</clipPath>
</defs>
</svg>
