<svg width="82" height="75" viewBox="0 0 82 75" fill="none" xmlns="http://www.w3.org/2000/svg">
    <path d="M49.112 37.489a8.111 8.111 0 1 1-16.222 0 8.111 8.111 0 0 1 16.222 0z" fill="#CACACA"/>
    <path fill-rule="evenodd" clip-rule="evenodd" d="M33.975 4.24l3.242 18.304c.674 3.807-3.052 6.9-6.67 5.536l-17.78-6.704 1.508-4 17.78 6.704a.712.712 0 0 0 .953-.79L29.766 4.986l4.209-.746zM9.91 24.472l16.39 8.77c3.408 1.825 3.534 6.666.226 8.666l-16.263 9.828-2.211-3.659 16.263-9.828a.712.712 0 0 0-.033-1.238l-16.39-8.77 2.017-3.77zM47.879 4.24l-3.242 18.304c-.674 3.807 3.052 6.9 6.67 5.536l17.78-6.704-1.508-4-17.78 6.704a.712.712 0 0 1-.953-.79l3.242-18.305-4.209-.745zM33.975 70.736l3.242-18.304c.674-3.807-3.052-6.9-6.67-5.536L12.767 53.6l1.508 4 17.78-6.704a.712.712 0 0 1 .953.79l-3.242 18.305 4.209.745zM47.879 70.736l-3.242-18.304c-.674-3.807 3.052-6.9 6.67-5.536l17.78 6.704-1.508 4-17.78-6.704a.712.712 0 0 0-.953.79l3.242 18.305-4.209.745zM71.945 24.472l-16.39 8.77c-3.409 1.825-3.535 6.666-.226 8.666l16.263 9.828 2.21-3.659L57.54 38.25a.712.712 0 0 1 .032-1.238l16.39-8.77-2.017-3.77z" fill="#CACACA"/>
</svg>
