<svg width="25" height="23" viewBox="0 0 25 23" fill="none" xmlns="http://www.w3.org/2000/svg">
    <rect x=".489" y="1" width="23" height="21" rx="7" fill="#F13D3D"/>
    <path d="M17.073 0H7.526C3.646 0 .489 3.074.489 6.852v9.296C.489 19.926 3.646 23 7.526 23h9.547c3.88 0 7.037-3.074 7.037-6.852V6.852C24.11 3.074 20.953 0 17.073 0zm4.661 16.148c0 2.506-2.087 4.538-4.66 4.538H7.525c-2.574 0-4.66-2.032-4.66-4.538V6.852c0-2.506 2.086-4.538 4.66-4.538h9.547c2.574 0 4.661 2.032 4.661 4.538v9.296z" fill="#F13D3D"/>
    <path d="M12.3 5.551c-3.37 0-6.11 2.669-6.11 5.949s2.74 5.949 6.11 5.949c3.368 0 6.109-2.669 6.109-5.949s-2.74-5.949-6.11-5.949zm0 9.584c-2.062 0-3.733-1.627-3.733-3.635 0-2.007 1.67-3.635 3.733-3.635 2.061 0 3.733 1.628 3.733 3.635 0 2.007-1.672 3.635-3.733 3.635zM18.42 7.021c.81 0 1.465-.638 1.465-1.425s-.656-1.425-1.464-1.425c-.809 0-1.464.638-1.464 1.425s.655 1.425 1.464 1.425z" fill="#fff"/>
</svg>
