<svg width="40" height="40" viewBox="0 0 40 40" fill="none" xmlns="http://www.w3.org/2000/svg">
<rect width="40" height="40" rx="20" fill="white"/>
<g clip-path="url(#clip0_154_7412)">
<path d="M22.5907 20.0935H14.4517V16.7056H22.5907C23.0661 16.7056 23.3967 16.7928 23.5625 16.945C23.7285 17.0972 23.8312 17.3795 23.8312 17.792V19.0085C23.8312 19.443 23.7285 19.7253 23.5625 19.8776C23.3967 20.0298 23.0661 20.0948 22.5907 20.0948V20.0935ZM23.149 13.5115H11V28H14.4517V23.2863H20.8128L23.8312 28H27.6964L24.3685 23.2642C25.5954 23.0729 26.1464 22.6774 26.6007 22.0256C27.0551 21.3738 27.2829 20.3316 27.2829 18.9408V17.8544C27.2829 17.0296 27.2 16.3777 27.0551 15.8781C26.9103 15.3785 26.6626 14.944 26.311 14.5537C25.9396 14.1841 25.5261 13.9239 25.0297 13.7496C24.5332 13.5974 23.9129 13.5102 23.149 13.5102V13.5115Z" fill="#100943"/>
<path d="M30.3481 13.5102C31.8126 13.5102 32.9999 12.2767 32.9999 10.7551C32.9999 9.2335 31.8126 8 30.3481 8C28.8835 8 27.6963 9.2335 27.6963 10.7551C27.6963 12.2767 28.8835 13.5102 30.3481 13.5102Z" fill="#ED143B"/>
</g>
<defs>
<clipPath id="clip0_154_7412">
<rect width="22" height="20" fill="white" transform="translate(11 8)"/>
</clipPath>
</defs>
</svg>
