<svg xmlns="http://www.w3.org/2000/svg" width="245" height="23" viewBox="0 0 245 23">
    <path d="M97.98 16.882l1.202.29v.145H95.2v-.145l1.127-.29V5.196l-1.127-.29V4.76h7.439c0 .073-.075.218-.075.363v1.96c0 .145 0 .363.075.508h-.15a4.24 4.24 0 0 1-.827-1.089c-.225-.435-.3-.871-.3-1.38H97.98zM103.842 9.473l-1.127-.29v-.145h2.705v1.089c.15-.218.3-.436.526-.654.15-.145.45-.29.676-.435.3-.145.601-.218.977-.218s.827.073 1.202.29c.376.218.752.508 1.052.871.3.363.601.871.752 1.38.225.58.3 1.16.3 1.887 0 .726-.075 1.306-.3 1.887-.226.58-.451 1.016-.827 1.38-.3.362-.751.652-1.127.87-.45.218-.902.29-1.352.29-.376 0-.677-.072-.977-.145-.226-.072-.451-.217-.601-.29-.226-.145-.376-.29-.451-.436v4.5l1.127.291v.145h-3.757v-.145l1.127-.29V9.473zm3.306 7.767c.3 0 .526-.073.752-.218.225-.145.45-.363.676-.653.225-.29.376-.726.45-1.234.151-.508.151-1.161.151-1.96 0-.798-.075-1.379-.15-1.96-.15-.508-.3-.943-.451-1.234a1.735 1.735 0 0 0-.601-.653 1.24 1.24 0 0 0-.676-.218c-.301 0-.602.073-.827.218a2.25 2.25 0 0 0-.601.58c-.225.219-.376.509-.526.8v5.37c.15.218.225.363.45.509.151.145.301.29.527.363.225.217.526.29.826.29zM115.858 18.842c-.225.58-.376 1.016-.601 1.379-.225.363-.376.653-.601.943a4.131 4.131 0 0 1-.676.508c-.226.073-.451.146-.752.146h-.451c-.075 0-.15 0-.15-.073l-.3-1.38c.075 0 .075.073.15.073h.451c.751 0 1.352-.145 1.728-.435.376-.29.6-.653.826-1.234l.526-1.524-3.38-7.84-1.128-.29V8.97h3.907v.145l-1.052.29 2.48 5.735 2.029-5.59-1.278-.435V8.97h2.93v.145l-1.277.436zM123.37 17.24c.601 0 1.127-.218 1.578-.58.375-.364.6-.944.6-1.598 0-.653-.225-1.234-.6-1.597-.376-.362-.902-.58-1.578-.58h-.376v-.363h.376c.601 0 1.052-.145 1.352-.436.3-.29.451-.726.451-1.234s-.15-.943-.45-1.234c-.301-.29-.602-.435-.902-.435-.526 0-.977.218-1.428.726-.45.435-.826 1.161-1.052 2.032h-.3c0-.145 0-.29.075-.508 0-.145 0-.29.075-.508V9.836c0-.145 0-.29-.075-.435 0-.145 0-.363-.075-.508h.3c.15.072.3.145.45.29.151.145.302.29.302.508.15-.145.3-.29.525-.436.15-.072.376-.217.602-.29.225-.072.526-.145.826-.145.376 0 .751.073 1.127.145.3.145.601.29.827.436.225.217.375.435.526.653.15.218.225.508.225.798 0 .436-.15.799-.376 1.017-.3.217-.6.435-.901.58-.376.145-.827.218-1.278.29.601.073 1.127.146 1.578.364.226.072.376.217.601.29.15.145.376.218.526.435.15.146.226.363.376.581.075.218.15.436.15.726 0 .363-.075.653-.225.944-.15.29-.376.58-.676.798a4.03 4.03 0 0 1-1.127.58c-.451.146-.977.218-1.578.218a3.62 3.62 0 0 1-1.278-.217 4.096 4.096 0 0 1-.976-.508c-.226-.218-.451-.436-.602-.726a1.88 1.88 0 0 1-.225-.871c0-.581.15-1.017.45-1.307.301-.29.602-.435 1.053-.435h.525l-.525 1.161c-.451 0-.752.073-.977.218-.225.145-.3.363-.3.653 0 .145.075.29.15.508.15.145.3.363.526.508.225.145.45.29.751.363.3.145.601.218.977.218zM132.387 8.75c.45 0 .977.073 1.352.29.451.218.827.508 1.203.871.375.363.6.871.826 1.38.226.58.3 1.16.3 1.887 0 .726-.074 1.306-.3 1.887-.225.58-.45 1.016-.826 1.38-.376.362-.752.652-1.203.87-.45.218-.901.29-1.352.29-.526 0-.977-.072-1.428-.29-.45-.218-.826-.508-1.202-.87-.376-.364-.601-.872-.826-1.38-.226-.58-.301-1.161-.301-1.887s.075-1.307.3-1.888c.226-.58.451-1.016.827-1.379.376-.363.751-.653 1.202-.87.451-.146.977-.291 1.428-.291zm0 .29c-.225 0-.45.073-.676.218a1.729 1.729 0 0 0-.601.653c-.15.29-.376.726-.451 1.234-.15.508-.15 1.162-.15 1.96 0 .799.075 1.452.15 1.96.15.508.3.944.45 1.234.15.29.376.58.602.653.225.145.45.218.676.218.225 0 .45-.073.676-.218.226-.145.451-.363.601-.653.15-.29.376-.726.451-1.234.15-.508.15-1.161.15-1.96 0-.798-.075-1.452-.15-1.96-.15-.508-.3-.943-.45-1.234-.151-.29-.376-.58-.602-.653a1.24 1.24 0 0 0-.676-.218zM137.65 17.17l1.127-.29V9.475l-1.127-.29V9.04h3.381c.601 0 1.052.073 1.503.145.45.073.751.218 1.052.436.3.145.45.363.601.58.15.218.15.436.15.726 0 .363-.15.653-.375.944-.3.218-.601.363-.902.508-.376.145-.827.218-1.277.29.6.073 1.202.145 1.653.363.225.073.375.145.6.29.226.146.376.218.527.436.15.145.3.363.375.508.076.218.15.436.15.653 0 .29-.074.581-.225.944-.15.29-.375.58-.751.798-.3.218-.751.436-1.277.509-.526.145-1.128.217-1.804.217h-3.381zm2.705-7.767v3.049h.676c1.127 0 1.728-.509 1.728-1.525s-.6-1.524-1.728-1.524zm0 7.549h.676c.752 0 1.278-.218 1.728-.58.376-.364.602-.872.602-1.525 0-.653-.226-1.162-.602-1.524a3.024 3.024 0 0 0-1.728-.509h-.676zM149.751 12.089c.676 0 1.278.072 1.804.217.526.146.976.29 1.277.581.3.218.601.508.751.798.15.29.226.654.226 1.017 0 .363-.075.726-.226 1.016-.15.29-.375.58-.751.798-.3.218-.751.436-1.277.581-.526.145-1.128.218-1.804.218h-3.381v-.145l1.127-.29V9.475l-1.127-.29V9.04h3.907v.145l-1.127.29v2.614zm-.676.363v4.5h.676c.752 0 1.278-.218 1.728-.58.376-.364.602-.944.602-1.67s-.226-1.307-.602-1.67c-.375-.363-.976-.58-1.728-.58zm7.74 4.427l1.126.29v.146h-3.907v-.145l1.127-.29V9.475l-1.127-.29V9.04h3.907v.145l-1.127.29zM161.399 15.135c.15.508.3.944.45 1.234.226.29.451.508.677.653.225.145.526.218.751.218.3 0 .676-.073.977-.145.3-.145.526-.29.827-.508.225-.218.45-.436.6-.726.15-.29.226-.58.301-.944h.3c-.074.363-.15.726-.375 1.089-.15.363-.376.58-.676.871-.3.218-.601.436-.977.58a3.107 3.107 0 0 1-1.127.218c-.526 0-.977-.072-1.428-.29-.45-.218-.826-.508-1.202-.87-.376-.364-.601-.872-.826-1.38-.226-.58-.301-1.161-.301-1.887s.075-1.38.3-1.888c.226-.58.451-1.016.752-1.379a3.31 3.31 0 0 1 1.127-.87c.45-.218.827-.291 1.353-.291.45 0 .901.073 1.352.29.45.218.751.436 1.127.871.3.363.601.799.751 1.38.226.58.301 1.16.301 1.887h-5.184c.004.761.077 1.324.15 1.887zm1.653-6.097c-.226 0-.376.072-.601.145a1.36 1.36 0 0 0-.526.58c-.15.291-.3.654-.451 1.162-.075.508-.15 1.161-.226 1.887h3.457c0-.726-.075-1.379-.226-1.814-.075-.509-.225-.871-.45-1.162-.15-.29-.376-.508-.526-.58-.076-.146-.3-.218-.451-.218zM176.792 17.172v.145h-3.982v-.145l1.127-.29V5.196l-1.127-.29V4.76h9.543v.145l-1.127.29v11.687l1.127.29v.145h-3.983v-.145l1.127-.29V5.122h-3.907v11.76zM184.912 9.473l-1.127-.29v-.145h2.705v1.089c.15-.218.3-.436.526-.654.15-.145.451-.29.677-.435.3-.145.6-.218.976-.218s.827.073 1.203.29a3.92 3.92 0 0 1 1.052.871c.3.363.6.871.751 1.38.225.58.3 1.16.3 1.887 0 .726-.075 1.306-.3 1.887-.225.58-.45 1.016-.827 1.38-.3.362-.751.652-1.127.87-.45.218-.901.29-1.352.29-.376 0-.676-.072-.977-.145-.225-.072-.45-.217-.601-.29-.225-.145-.376-.29-.45-.436v4.5l1.126.291v.145h-3.907v-.145l1.127-.29V9.473zm3.307 7.767c.3 0 .526-.073.751-.218.225-.145.45-.363.676-.653.226-.29.376-.726.451-1.234.15-.508.15-1.161.15-1.96 0-.798-.075-1.379-.15-1.96-.15-.508-.3-.943-.45-1.234a1.735 1.735 0 0 0-.602-.653 1.24 1.24 0 0 0-.676-.218c-.3 0-.601.073-.827.218a2.25 2.25 0 0 0-.6.58c-.226.219-.376.509-.527.8v5.37c.15.218.226.363.451.509.15.145.3.29.526.363.225.217.526.29.827.29zM198.664 9.258v-.145h3.757v.145l-1.127.29v7.404l1.127.29v.145h-3.757v-.217l1.052-.29v-5.953l-3.381 4.863v1.09l1.052.29v.145h-3.757v-.145l1.127-.29V9.475l-1.127-.29V9.04h3.757v.145l-1.052.29v5.662l3.381-4.863v-.798zM213.012 16.952c0 .145-.075.218-.075.363v2.105c0 .145 0 .29.075.435h-.225c-.3-.29-.601-.653-.902-1.089a3.282 3.282 0 0 1-.376-1.524h-7.739v-.072l1.127-.29V9.475l-1.127-.29V9.04h3.757v.145l-1.052.29v7.477h3.306V9.476l-1.052-.29V9.04h3.757v.145l-1.127.29v7.477zM215.949 15.135c.15.508.3.944.45 1.234.226.29.451.508.677.653.225.145.526.218.751.218.3 0 .676-.073.977-.145.3-.145.526-.29.827-.508.225-.218.45-.436.6-.726.15-.29.226-.58.301-.944h.3c-.074.363-.15.726-.375 1.089-.15.363-.376.58-.676.871-.3.218-.601.436-.977.58a3.107 3.107 0 0 1-1.127.218c-.526 0-.977-.072-1.428-.29-.45-.218-.826-.508-1.202-.87-.376-.364-.601-.872-.826-1.38-.226-.58-.301-1.161-.301-1.887s.075-1.38.3-1.888c.226-.58.451-1.016.752-1.379a3.31 3.31 0 0 1 1.127-.87c.45-.218.827-.291 1.353-.291.45 0 .901.073 1.352.29.45.218.751.436 1.127.871.3.363.601.799.751 1.38.226.58.301 1.16.301 1.887h-5.184c.004.761.077 1.324.15 1.887zm1.653-6.097c-.226 0-.376.072-.601.145-.226.145-.376.29-.526.58-.15.291-.3.654-.451 1.162a41.2 41.2 0 0 0-.226 1.815h3.457c0-.726-.075-1.38-.226-1.815-.075-.508-.225-.871-.45-1.161-.15-.29-.376-.508-.526-.581-.076-.073-.3-.145-.451-.145zM222.48 9.04h8.716v.145l-1.127.29v7.404l1.127.29v.146h-3.757v-.145l1.052-.29V9.402h-3.306v7.476l1.052.29v.146h-3.757v-.145l1.127-.29V9.475l-1.127-.29zM236.011 12.089c.676 0 1.278.072 1.804.217.526.146.976.29 1.277.581.3.218.601.508.751.798.15.29.226.654.226 1.017 0 .363-.075.726-.226 1.016-.15.29-.375.58-.751.798-.3.218-.751.436-1.277.581-.526.145-1.128.218-1.804.218h-3.381v-.145l1.127-.29V9.475l-1.127-.29V9.04h3.907v.145l-1.127.29v2.614zm-.751.363v4.5h.676c.751 0 1.277-.218 1.728-.58.376-.364.601-.944.601-1.67s-.225-1.307-.6-1.67c-.376-.363-.978-.58-1.729-.58zm7.814 4.427l1.127.29v.146h-3.907v-.145l1.127-.29V9.475l-1.127-.29V9.04h3.907v.145l-1.127.29z"/>
    <g>
        <path d="M82.853 12.621s0 .073.075.218v4.5c0 .073-.075.146-.15.146h-5.185l-1.052-1.525h-6.236v-.725H67.75v-6.46L68.2 5h10.67c.827 0 1.578.944 1.804 1.597.075.145 0 .218 0 .218l.3.435-.225.073 1.878 4.645c.076.073.15.145.15.29zm-.3 0l-.076-.362c0-.073 0-.146-.075-.218-.075 0-.075-.073-.075-.073l-1.879-4.645v-.218l.076-.073c-.076-.072-.076-.145-.15-.217a.215.215 0 0 1 0-.29c-.151-.654-.827-1.452-1.504-1.452H68.426l-.375 3.484v6.17h2.254c.15 0 .3.145.3.29v.435h5.936c.075 0 .15.073.226.145l.976 1.38h4.81zM39.87 19.884h.601V16.11h-.601z"/>
        <path d="M39.34 19.487h1.653V17.89H39.34zM39.34 20.358h1.578v-.508H39.34zM39.04 20.598h2.33v-.218h-2.33zM45.73 19.129h.376V16.08h-.376zM1.33 17.855h39.899l2.028-1.742L1.33 16.04z"/>
        <path d="M1.33 16.476l41.401.072.451-.435L1.33 16.04zM1.33 17.856h39.899l.45-.436H1.33z"/>
        <path d="M3.285 16.11l-2.029 1.815v1.379H.73v-1.597l.526-1.597z"/>
        <path d="M.806 19.234h-.45l-.076-.072v-1.38l.075-.072h.451l.075.073z"/>
        <path d="M.806 19.234h-.45l-.076-.072v-1.38l.075-.072h.451l.075.073z"/>
        <path d="M.443 17.845v.363h.375v-.362z"/>
        <path d="M.499 18.044c0-.08-.034-.145-.075-.145-.042 0-.075.065-.075.145 0 .08.033.145.075.145.041 0 .075-.064.075-.145zM.806 18.36H.43v.363h.376z"/>
        <path d="M.481 18.496c0-.08-.033-.145-.075-.145-.041 0-.075.065-.075.145 0 .08.033.145.075.145.041 0 .075-.065.075-.145zM.408 18.748v.363h.375v-.362z"/>
        <path d="M.425 19.08c.042 0 .075-.065.075-.145 0-.08-.033-.145-.075-.145-.041 0-.075.065-.075.145 0 .08.034.145.075.145z"/>
        <path d="M.43 19.157c-.075-.073-.075-.073-.15-.073v-1.161c.075 0 .075-.073.075-.073H.43c0 .073.075.073.075.073v1.161c0 .073 0 .073-.075.073z"/>
        <g opacity=".2">
            <path d="M.355 19.16s-.075 0 0 0L.28 17.852s0-.073.075-.073c0 0 .075 0 .075.073l-.075 1.306c.075 0 0 0 0 0z" opacity=".04"/>
        </g>
        <path d="M.73 17.78H.58c.075 0 .075 0 .075.073v1.306s0 .073-.075.073h.15l.075-.073v-1.234c0-.072 0-.145-.075-.145zM36.96 19.129h.376V16.08h-.376zM28.27 19.129h.376V16.08h-.376z"/>
        <path d="M45.889 18.5H27.48v.944h19.461V18.5zM3.135 18.863l.602-1.234c.45-1.016 1.577-1.669 2.705-1.669h16.755c1.128 0 2.18.653 2.705 1.67l.602 1.233c.15.218.15.509.15.726v.726c0 .073-.075.218-.226.218h-.3c-.075 0-.15-.073-.15-.218v-.58c0-.218-.076-.436-.15-.654l-.527-1.089c-.375-.798-1.202-1.306-2.104-1.306H6.366c-.901 0-1.728.508-2.104 1.306l-.525 1.09c-.076.217-.15.435-.15.652v.581c0 .073-.076.145-.151.218h-.3c-.076 0-.226-.073-.226-.218v-.726c.075-.217.075-.435.225-.726z"/>
        <path d="M.11 16.156h66.498v-.726H.11z"/>
        <path d="M65.608 14.52H1.17V1.12h64.44zM.118.068v15.504H66.66V.068zM59.32 16.773h2.404v-.363H59.32z"/>
        <path d="M58.78 16.446h3.682v-.436H58.78zM67.401 15.466h1.984v2.09h-1.984z"/>
        <path d="M49.418 17.05l1.352-.58h2.555l1.427 1.161.977 2.468h1.127l.226-2.903 7.213.072.15 2.904 1.804-.073 2.554-2.685v-.654H47.99v2.105z"/>
        <path d="M54.902 17.631H69.93l1.202-.871H53.7zM68.6 4.86h9.092v-.29H68.6z"/>
        <path d="M72.261 15.82l-1.653 1.67a3.006 3.006 0 0 0-.902 1.887l-.15 1.379h-.526V15.82zM47.69 19.303s.15.653.15 1.161-.15 1.307-.15 1.38c0 .072.3-.218.3-.364.076-.217.15-.58.226-1.088.075-1.09-.3-1.452-.3-1.452z"/>
        <path d="M69.102 16.69v4.065h-.3v-.436c0-.29-.226-.435-.451-.435h-.977c-.3 0-.45.218-.45.435v.436H65.27V16.69z"/>
        <path d="M68.356 20.686a.37.37 0 0 0 .375-.363.37.37 0 0 0-.375-.363.37.37 0 0 0-.376.363c0 .2.168.363.376.363zM67.376 20.686a.37.37 0 0 0 .375-.363.37.37 0 0 0-.375-.363.37.37 0 0 0-.376.363c0 .2.168.363.376.363zM74.887 7.83H71.13v.363h3.757zM71.13 8.27v.363h3.757V8.27zM71.13 8.78v.363h3.757V8.78zM71.13 9.21v.363h3.757V9.21zM71.13 9.65v.436h3.757V9.65zM67.95 15.78h2.48v-9h-2.48zM80.375 7.33l1.653 4.065c0 .072.15.145.226.145h.225l.15.29h-.375c-.076 0-.226-.072-.226-.145L80.3 7.33zM76.62 13.06c-.15 0-.3.145-.3.29v.654c0 .145.15.29.3.29s.301-.145.301-.29v-.654c-.075-.145-.15-.29-.3-.29zM52.574 16.11h-1.578c-1.127 0-2.179.653-2.705 1.67l-.676 1.379c-.075.072-.075.217-.075.29v.145c0 .073.075.073.075.073h.376c.075 0 .15-.073.15-.145v-.146l.676-1.379c.376-.798 1.203-1.306 2.104-1.306h1.503c.902 0 1.728.508 2.104 1.306l.526 1.089c.075.218.15.436.15.653v.654c0 .072.075.145.15.217h.301c.075 0 .225-.072.225-.217v-.726c0-.29-.075-.508-.15-.726l-.601-1.162c-.376-1.016-1.428-1.669-2.555-1.669zM80.823 11.099l-1.202-3.194c0-.072-.075-.145-.15-.145h-3.006c-.075 0-.075 0-.075.073v2.83s0 .073.075.073l3.231 1.016h1.127c.075 0 .075-.072.075-.072.075-.073 0-.436-.075-.581zM47.99 17.921h-.3V16.76h.3v1.161c.076-.072.076 0 0 0z"/>
        <path d="M47.99 17.921h-.3V16.76h.3v1.161c.076-.072.076 0 0 0z"/>
        <path d="M47.985 16.84h-.225v.29h.225z"/>
        <path d="M47.765 17.13c.042 0 .075-.065.075-.145 0-.08-.033-.145-.075-.145-.041 0-.075.065-.075.145 0 .08.034.145.075.145zM47.985 17.2h-.225v.29h.225z"/>
        <path d="M47.765 17.49c.042 0 .075-.065.075-.145 0-.08-.033-.145-.075-.145-.041 0-.075.065-.075.145 0 .08.034.145.075.145zM47.985 17.56h-.225v.29h.225z"/>
        <path d="M47.765 17.85c.042 0 .075-.065.075-.145 0-.08-.033-.145-.075-.145-.041 0-.075.065-.075.145 0 .08.034.145.075.145z"/>
        <path d="M47.835 17.856h-.075V16.84h.075z"/>
        <g opacity=".2">
            <path d="M47.685 17.856l-.075-1.016h.15l-.075 1.016c.075 0 .075 0 0 0z" opacity=".04"/>
        </g>
        <path d="M47.99 16.76h-.075.075l-.075 1.089s0 .072-.075.072h.075v-1.088c.15-.073.15-.073.075-.073z"/>
        <g>
            <path d="M79.414 7.555h.541v.174h-.54z"/>
        </g>
        <g>
            <path d="M81.103 11.969h.54v.174h-.54z"/>
        </g>
        <g>
            <path d="M76.762 19.959v.145h.075l-.075.363h-.075c-.075.073-.075.073-.075.145h.075l-.15.363h-.076c0 .073-.075.073-.075.145h.075l-.225.363h-.075l-.075.073.075.072-.3.29-.076-.072-.075.073.075.072-.3.29-.076-.072s0 .073-.075.073v.072l-.375.218v-.073c-.076 0-.076.073-.15.073v.073l-.376.145v-.073c-.076.073-.076.073-.15.073v.072l-.376.073v-.073h-.15v.073h-.376v-.073h-.15v.073l-.376-.073v-.072c-.075-.073-.075-.073-.15-.073v.073l-.376-.145v-.073c-.075 0-.075-.073-.15-.073v.073l-.376-.218v-.072l-.075-.073-.076.073-.3-.29.075-.073-.075-.073-.075.073-.3-.29.074-.073s-.075 0-.075-.073h-.075l-.225-.363h.075c0-.072-.075-.072-.075-.145H70.6l-.15-.363h.074c-.075-.072-.075-.072-.075-.145h-.075l-.075-.363h.075v-.145H70.3v-.363h.075v-.145H70.3l.075-.363h.075c.075-.073.075-.073.075-.145h-.075l.15-.363h.076c0-.073.075-.073.075-.145h-.075l.225-.363h.075l.075-.073-.075-.072.3-.29.076.072.075-.073-.075-.072.3-.29.076.072s0-.073.075-.073v-.072l.375-.218v.073c.076 0 .076-.073.15-.073v-.073l.376-.145v.073c.076-.073.076-.073.15-.073v-.072l.376-.073v.073h.15v-.073h.376v.073h.15v-.073l.376.073v.072c.075.073.075.073.15.073v-.073l.376.145v.073c.075 0 .075.073.15.073v-.073l.376.218v.072l.075.073.076-.073.3.29-.075.073.075.073.075-.073.3.29-.074.073s.075 0 .075.073h.075l.225.363h-.075c0 .072.075.072.075.145h.076l.15.363h-.075c.075.072.075.072.075.145h.075l.075.363h-.075v.145h.075v.363zm-.827-.218c0-1.161-.976-2.105-2.179-2.105-1.202 0-2.179.944-2.179 2.105 0 1.162.977 2.105 2.18 2.105 1.202 0 2.178-.943 2.178-2.105zm-.45 0c0 .944-.752 1.67-1.729 1.67-.976 0-1.728-.726-1.728-1.67 0-.943.752-1.67 1.728-1.67.902 0 1.729.727 1.729 1.67z"/>
        </g>
        <g>
            <path d="M77.818 4.49c0 .073 0 .073-.075.146H68.2l.376-2.686s1.803.073 2.855.218c2.78.435 4.433 1.016 6.161 2.177zm-.827-.217c-1.503-.944-3.08-1.452-5.635-1.887-.752-.073-2.029-.218-2.555-.218l-.3 2.105z"/>
        </g>
        <g>
            <path d="M11.32 15.383H.2V.14h2.104z"/>
        </g>
        <g>
            <path d="M66.477 14H8.62v1.67h57.857z"/>
        </g>
        <g>
            <path d="M29.731 1.59h-.751v12.92h.751z"/>
        </g>
        <g>
            <path d="M38.141 1.52h-.751v12.92h.751z"/>
        </g>
        <g>
            <path d="M46.481 1.59h-.751v12.92h.751z"/>
        </g>
        <g>
            <path d="M54.751 1.59H54v12.92h.751z"/>
        </g>
        <g>
            <path d="M63.091 1.66h-.751v12.92h.751z"/>
        </g>
        <g>
            <path d="M13.121 1.59h-.751v12.92h.751z"/>
        </g>
        <g>
            <path d="M21.391 1.59h-.751v12.92h.751z"/>
        </g>
        <g>
            <path d="M61.663 16.91H59.86v3.63h1.803zM63.763 16.91H61.96v3.63h1.803zM59.563 16.91H57.76v3.63h1.803zM65.122 16.91H64.07v3.63h1.052z"/>
        </g>
        <g>
            <path d="M82.632 11.896l-.526-1.306v-.436h.226v-.87h-.226V8.121c0-.073-.075-.145-.15-.145v2.177l-1.052-2.54h.376l-.301-.726c-.075-.145-.15-.218-.3-.218H68.054l-.075.58h11.797c.15 0 .375.146.45.291v.073h.076c.15.435.526 1.234.901 2.25.451 1.234.677 1.887.752 2.177 0 .073.075.145.225.145h.676a1.008 1.008 0 0 0-.225-.29z"/>
        </g>
        <g>
            <path d="M79.77 7.543s-.075-.073 0 0l-.225-.073s-.075 0-.075.073v.145s0 .072.075.072h.226s.075 0 .075-.072h.15v-.073zM81.576 11.973h-.075s0-.073-.075-.073h-.3s-.076 0-.076.073v.145s0 .072.075.072h.3s.076 0 .076-.072v-.073z"/>
        </g>
        <g>
            <path d="M82.707 17.703c.076 0 .226.073.376.29v2.468c0 .073-.075.218-.15.218l-.752.218h-4.733l-.451-3.267a1.514 1.514 0 0 0-1.503-1.233H67.83V15.09h7.514c1.202 0 2.179.798 2.404 1.887h4.81v.726zm-.901 1.815h-3.983l.076.87h3.907zm0-1.307h-3.983l.076.871h3.907z"/>
        </g>
        <g>
            <path d="M54.752 19.959v.145h.075l-.075.363h-.075c-.075.073-.075.073-.075.145h.075l-.15.363h-.076c0 .073-.075.073-.075.145h.075l-.225.363h-.075l-.075.073.075.072-.3.29-.076-.072-.075.073.075.072-.3.29-.076-.072s0 .073-.075.073v.072l-.375.218v-.073c-.076 0-.076.073-.15.073v.073l-.376.145v-.073c-.076.073-.076.073-.15.073v.072l-.376.073v-.073h-.15v.073h-.376v-.073h-.15v.073l-.376-.073v-.072c-.075-.073-.075-.073-.15-.073v.073l-.376-.145v-.073c-.075 0-.075-.073-.15-.073v.073l-.376-.218v-.072l-.075-.073-.075.073-.301-.29.075-.073-.075-.073-.075.073-.3-.29.074-.073s-.075 0-.075-.073h-.075l-.225-.363h.075c0-.072-.075-.072-.075-.145h-.075l-.15-.363h.074c-.075-.072-.075-.072-.075-.145h-.075l-.075-.363h.075v-.145h-.075v-.363h.075v-.145h-.075l.075-.363h.075c.075-.073.075-.073.075-.145h-.075l.15-.363h.076c0-.073.075-.073.075-.145h-.075l.225-.363h.075l.075-.073-.075-.072.3-.29.076.072.075-.073-.075-.072.3-.29.076.072s0-.073.075-.073v-.072l.375-.218v.073c.076 0 .076-.073.15-.073v-.073l.376-.145v.073c.076-.073.076-.073.15-.073v-.072l.376-.073v.073h.15v-.073h.376v.073h.15v-.073l.376.073v.072c.075.073.075.073.15.073v-.073l.376.145v.073c.075 0 .075.073.15.073v-.073l.376.218v.072l.075.073.076-.073.3.29-.075.073.075.073.075-.073.3.29-.074.073s.075 0 .075.073h.075l.225.363h-.075c0 .072.075.072.075.145h.076l.15.363h-.075c.075.072.075.072.075.145h.075l.075.363h-.075v.145h.075v.363zm-.827-.218c0-1.161-.976-2.105-2.179-2.105-1.202 0-2.179.944-2.179 2.105 0 1.162.977 2.105 2.18 2.105 1.202 0 2.178-.943 2.178-2.105zm-.45 0c0 .944-.752 1.67-1.729 1.67-.976 0-1.728-.726-1.728-1.67 0-.943.752-1.67 1.728-1.67.977 0 1.729.727 1.729 1.67z"/>
        </g>
        <g>
            <path d="M25.222 20.032h.075l-.075.362h-.075c-.076.073-.076.073-.076.146h.076l-.15.363h-.076c0 .072-.075.072-.075.145h.075l-.225.363h-.075l-.076.072.15.145-.3.29-.075-.072-.075.073.075.072-.3.29-.076-.072s0 .073-.075.073v.072l-.376.218v-.073c-.075 0-.075.073-.15.073v.073l-.376.145v-.073c-.075.073-.075.073-.15.073v.072l-.375.073v-.073h-.15v.073h-.301v-.073h-.15v.073l-.376-.073v-.072c-.075-.073-.075-.073-.15-.073v.073l-.376-.145v-.073c-.075 0-.075-.073-.15-.073v.073l-.376-.218v-.072l-.075-.073-.075.073-.301-.29.075-.073-.075-.073-.075.073-.3-.29.074-.073s-.075 0-.075-.073h-.075l-.225-.363.075-.072c0-.073-.075-.073-.075-.145h-.075l-.15-.363h.074c-.075-.073-.075-.073-.075-.146h-.075l-.075-.362h.075v-.146h-.075v-.363h.075v-.145h-.075l.075-.363h.075c.075-.072.075-.072.075-.145h-.075l.15-.363h.076c0-.072.075-.072.075-.145h-.075l.075-.218h.075l.075-.072-.075-.073.3-.29.076.072.075-.072-.075-.073.3-.29.075.072s0-.072.076-.072v-.073l.375-.217v.072c.075 0 .075-.072.15-.072v-.073l.376-.145v.072c.075-.072.075-.072.15-.072v-.073l.301-.145v.073h.15v-.073h.376v.073h.15v-.073l.376.073v.072c.075.073.075.073.15.073v-.073l.376.145v.073c.075 0 .075.073.15.073v-.073l.376.218v.072l.075.073.075-.073.3.29-.074.073.075.073.075-.073.3.29-.075.073s.075 0 .075.073h.076l.225.363h-.075c0 .072.075.072.075.145h.075l.15.363h-.075c.075.072.075.072.075.145h.076l.075.363h-.075v.145h.075v.436zm-.977-.29c0-1.162-.977-2.106-2.18-2.106-1.201 0-2.178.944-2.178 2.105 0 1.162.977 2.105 2.179 2.105s2.179-.943 2.179-2.105zm-.376 0c0 .943-.751 1.669-1.728 1.669s-1.728-.726-1.728-1.67c0-.943.751-1.67 1.728-1.67.902 0 1.728.727 1.728 1.67z"/>
        </g>
        <g>
            <path d="M17.862 20.102h.075l-.075.362h-.075c-.076.073-.076.073-.076.146h.076l-.15.363h-.076c0 .072-.075.072-.075.145h.075l-.225.363h-.075l-.076.072.076.073-.301.29-.075-.072-.075.072.075.073-.3.29-.076-.072-.075.072v.073l-.376.217v-.072c-.075 0-.075.072-.15.072v.073l-.376.145v-.072c-.075.072-.075.072-.15.072v.073l-.376.072v-.072h-.15v.072h-.376v-.072h-.15v.072l-.376-.072v-.073c-.075-.072-.075-.072-.15-.072v.072l-.376-.145v-.073c-.075 0-.075-.072-.15-.072v.072l-.3-.217v-.073l-.076-.072-.075.072-.3-.29.15-.073-.075-.072-.075.072-.3-.29.074-.073-.075-.072h-.075l-.225-.363H12c0-.073-.075-.073-.075-.145h-.075l-.15-.363h.074c-.075-.073-.075-.073-.075-.146h-.075l-.075-.362h.075v-.146h-.075v-.363h.075v-.145h-.075l.075-.363h.075c.075-.072.075-.072.075-.145H11.7l.075-.29h.076c0-.073.075-.073.075-.145h-.075l.225-.363h.075l.075-.073-.075-.072.3-.29.076.072.075-.073-.075-.072.3-.218.076.072s0-.072.075-.072v-.073l.375-.217v.072c.075 0 .075-.072.15-.072v-.073l.376-.145v.072c.075-.072.075-.072.15-.072v-.073l.376-.072v.072h.15v-.072h.376v.072h.15v-.072l.226-.073v.073c.075.072.075.072.15.072v-.072l.376.145v.072c.075 0 .075.073.15.073v-.073l.376.218v.073l.075.072.075-.072.3.29-.074.073.075.072.075-.072.3.29-.075.073s.075 0 .075.072h.076l.225.363h-.075c0 .073.075.073.075.145h.075l.15.363h-.075c.075.073.075.073.075.145h.076l.075.436h-.075v.145h.075v.436zm-.977-.29c0-1.162-.977-2.106-2.18-2.106-1.201 0-2.178.944-2.178 2.105 0 1.162.977 2.105 2.179 2.105s2.179-.943 2.179-2.105zm-.451 0c0 .943-.751 1.669-1.728 1.669s-1.728-.726-1.728-1.67c0-.943.751-1.67 1.728-1.67s1.728.727 1.728 1.67z"/>
        </g>
        <g>
            <path d="M10.642 19.954v.145h.075l-.075.363h-.075c-.075.072-.075.072-.075.145h.075l-.15.363h-.076c0 .073-.075.073-.075.145h.075l-.225.363h-.075l-.075.073.075.072-.3.29-.076-.072-.075.073.075.072-.3.29-.076-.072s0 .073-.075.073v.072l-.375.218v-.073c-.076 0-.076.073-.15.073v.072l-.376.146v-.073c-.076.073-.076.073-.15.073v.072l-.376.073v-.073h-.15v.073H7.26v-.073h-.15v.073l-.376-.073v-.072c-.075-.073-.075-.073-.15-.073v.073l-.376-.146v-.072c-.075 0-.075-.073-.15-.073v.073l-.376-.218v-.072l-.075-.073-.075.073-.301-.29.075-.073-.075-.073-.075.073-.3-.29.074-.073-.075-.073H4.78l-.225-.363h.075c0-.072-.075-.072-.075-.145H4.48l-.15-.363h.074c-.075-.073-.075-.073-.075-.145h-.075l-.075-.363h.075v-.145H4.18v-.363h.075v-.145H4.18l.075-.363h.075c.075-.073.075-.073.075-.145H4.33v-.218h.075c0-.073.076-.073.076-.145h-.076l.226-.363h.075l.075-.073-.075-.072.3-.29.076.072.075-.073-.075-.072.3-.29.075.072s0-.073.076-.073v-.072l.375-.218v.073c.075 0 .075-.073.15-.073v-.073l.376-.145v.073c.075-.073.075-.073.15-.073v-.072l.376-.073v.073h.15v-.073h.376v.073h.15v-.073h.376v.073c.075.072.075.072.15.072v-.072l.376.145v.072c.075 0 .075.073.15.073v-.073l.376.218v.073l.075.072.075-.072.3.29-.074.073.075.072v-.072l.3.29-.075.073s.075 0 .075.072h.076l.225.363h-.075c0 .073.075.073.075.145h.075l.15.363h-.075c.075.073.075.073.075.145h.076l.075.363h-.075v.145h.075v.363zm-1.127-.145c0-1.162-.977-2.105-2.18-2.105-1.201 0-2.178.943-2.178 2.105 0 1.161.977 2.105 2.179 2.105s2.179-.944 2.179-2.105zm-.451 0c0 .943-.751 1.67-1.728 1.67s-1.728-.727-1.728-1.67c0-.944.751-1.67 1.728-1.67s1.728.726 1.728 1.67z"/>
        </g>
        <g>
            <path d="M57.532 17.49H56.33v2.976h1.202z"/>
        </g>
    </g>
</svg>
