<svg width="20" height="20" viewBox="0 0 20 20" fill="none" xmlns="http://www.w3.org/2000/svg">
<path d="M0 19.1667H8.33333V20H0V19.1667ZM6.66667 15.8333H0V16.6667H6.66667V15.8333ZM5 12.5H0V13.3333H5V12.5ZM9.16667 4.16667V10.2358L13.5358 12.8575L13.9642 12.1433L10 9.765V4.1675L9.16667 4.16667ZM10 0C4.48583 0 0 4.48583 0 10C0 10.2817 0.0191667 10.5575 0.0425 10.8333H0.875833C0.849036 10.5563 0.834855 10.2783 0.833333 10C0.833333 4.94583 4.94583 0.833333 10 0.833333C15.0542 0.833333 19.1667 4.94583 19.1667 10C19.1667 15.0542 15.0542 19.1667 10 19.1667V20C15.5142 20 20 15.5142 20 10C20 4.48583 15.5142 0 10 0Z" fill="#F13D3D"/>
</svg>
