<svg width="140" height="26" viewBox="0 0 140 26" fill="none" xmlns="http://www.w3.org/2000/svg">
<path d="M72.78 4.86H78.34V12H77.39V5.66H73.73V12H72.78V4.86ZM79.7891 6.83H80.6391V7.53H80.6591C80.7991 7.24333 81.0191 7.03667 81.3191 6.91C81.6191 6.77667 81.9491 6.71 82.3091 6.71C82.7091 6.71 83.0558 6.78333 83.3491 6.93C83.6491 7.07667 83.8958 7.27667 84.0891 7.53C84.2891 7.77667 84.4391 8.06333 84.5391 8.39C84.6391 8.71667 84.6891 9.06333 84.6891 9.43C84.6891 9.80333 84.6391 10.1533 84.5391 10.48C84.4458 10.8 84.2991 11.0833 84.0991 11.33C83.9058 11.57 83.6591 11.76 83.3591 11.9C83.0658 12.04 82.7225 12.11 82.3291 12.11C82.1958 12.11 82.0525 12.0967 81.8991 12.07C81.7458 12.0433 81.5925 12 81.4391 11.94C81.2858 11.88 81.1391 11.8 80.9991 11.7C80.8658 11.5933 80.7525 11.4633 80.6591 11.31H80.6391V13.97H79.7891V6.83ZM82.2391 11.37C82.5258 11.37 82.7691 11.3133 82.9691 11.2C83.1691 11.0867 83.3291 10.9367 83.4491 10.75C83.5691 10.5633 83.6558 10.35 83.7091 10.11C83.7625 9.87 83.7891 9.62333 83.7891 9.37C83.7891 9.13 83.7558 8.89667 83.6891 8.67C83.6291 8.43667 83.5325 8.23 83.3991 8.05C83.2725 7.87 83.1058 7.72667 82.8991 7.62C82.6991 7.51333 82.4625 7.46 82.1891 7.46C81.9025 7.46 81.6591 7.51667 81.4591 7.63C81.2591 7.74333 81.0958 7.89333 80.9691 8.08C80.8425 8.26 80.7491 8.46667 80.6891 8.7C80.6358 8.93333 80.6091 9.17 80.6091 9.41C80.6091 9.66333 80.6391 9.91 80.6991 10.15C80.7591 10.3833 80.8525 10.59 80.9791 10.77C81.1125 10.95 81.2825 11.0967 81.4891 11.21C81.6958 11.3167 81.9458 11.37 82.2391 11.37ZM87.9169 12.11C87.5035 12.11 87.1402 12.0433 86.8269 11.91C86.5202 11.77 86.2602 11.58 86.0469 11.34C85.8335 11.0933 85.6735 10.8067 85.5669 10.48C85.4602 10.1533 85.4069 9.8 85.4069 9.42C85.4069 9.04 85.4602 8.68667 85.5669 8.36C85.6735 8.02667 85.8335 7.74 86.0469 7.5C86.2602 7.25333 86.5202 7.06 86.8269 6.92C87.1402 6.78 87.5035 6.71 87.9169 6.71C88.3235 6.71 88.6835 6.78 88.9969 6.92C89.3102 7.06 89.5735 7.25333 89.7869 7.5C90.0002 7.74 90.1602 8.02667 90.2669 8.36C90.3735 8.68667 90.4269 9.04 90.4269 9.42C90.4269 9.8 90.3735 10.1533 90.2669 10.48C90.1602 10.8067 90.0002 11.0933 89.7869 11.34C89.5735 11.58 89.3102 11.77 88.9969 11.91C88.6835 12.0433 88.3235 12.11 87.9169 12.11ZM87.9169 11.37C88.1369 11.37 88.3435 11.3267 88.5369 11.24C88.7369 11.1533 88.9102 11.03 89.0569 10.87C89.2035 10.7033 89.3169 10.5 89.3969 10.26C89.4835 10.0133 89.5269 9.73333 89.5269 9.42C89.5269 9.10667 89.4835 8.83 89.3969 8.59C89.3169 8.34333 89.2035 8.13667 89.0569 7.97C88.9102 7.80333 88.7369 7.67667 88.5369 7.59C88.3435 7.50333 88.1369 7.46 87.9169 7.46C87.6969 7.46 87.4869 7.50333 87.2869 7.59C87.0935 7.67667 86.9235 7.80333 86.7769 7.97C86.6302 8.13667 86.5135 8.34333 86.4269 8.59C86.3469 8.83 86.3069 9.10667 86.3069 9.42C86.3069 9.73333 86.3469 10.0133 86.4269 10.26C86.5135 10.5 86.6302 10.7033 86.7769 10.87C86.9235 11.03 87.0935 11.1533 87.2869 11.24C87.4869 11.3267 87.6969 11.37 87.9169 11.37ZM91.4291 6.83H92.2791V11.05L94.7191 6.83H95.8091V12H94.9591V7.78L92.5191 12H91.4291V6.83ZM98.9931 12.11C98.3065 12.11 97.7698 11.9567 97.3831 11.65C96.9965 11.3433 96.7865 10.9067 96.7531 10.34H97.6131C97.6398 10.72 97.7798 10.9933 98.0331 11.16C98.2865 11.3267 98.6031 11.41 98.9831 11.41C99.3898 11.41 99.7031 11.3233 99.9231 11.15C100.143 10.9767 100.253 10.7567 100.253 10.49C100.253 10.23 100.17 10.0267 100.003 9.88C99.8365 9.73333 99.5531 9.66 99.1531 9.66H98.4631V8.97H99.0131C99.3131 8.97 99.5698 8.91 99.7831 8.79C99.9965 8.66333 100.103 8.44667 100.103 8.14C100.103 7.94667 100.01 7.77667 99.8231 7.63C99.6431 7.48333 99.3731 7.41 99.0131 7.41C98.8598 7.41 98.7065 7.42667 98.5531 7.46C98.4065 7.49333 98.2731 7.54667 98.1531 7.62C98.0331 7.69333 97.9331 7.79 97.8531 7.91C97.7731 8.03 97.7231 8.17667 97.7031 8.35H96.8431C96.8631 8.03 96.9398 7.76667 97.0731 7.56C97.2065 7.34667 97.3731 7.18 97.5731 7.06C97.7731 6.93333 97.9998 6.84333 98.2531 6.79C98.5065 6.73667 98.7631 6.71 99.0231 6.71C99.2898 6.71 99.5398 6.73667 99.7731 6.79C100.006 6.84333 100.21 6.93 100.383 7.05C100.563 7.16333 100.703 7.30667 100.803 7.48C100.91 7.65333 100.963 7.86 100.963 8.1C100.963 8.4 100.876 8.64333 100.703 8.83C100.536 9.01667 100.346 9.13333 100.133 9.18V9.2C100.253 9.22 100.373 9.26 100.493 9.32C100.613 9.38 100.72 9.46333 100.813 9.57C100.906 9.67 100.983 9.79667 101.043 9.95C101.103 10.0967 101.133 10.27 101.133 10.47C101.133 10.75 101.073 10.9933 100.953 11.2C100.833 11.4067 100.673 11.5767 100.473 11.71C100.273 11.8433 100.043 11.9433 99.7831 12.01C99.5298 12.0767 99.2665 12.11 98.9931 12.11ZM102.152 6.83H104.542C104.768 6.83 104.985 6.84667 105.192 6.88C105.405 6.91333 105.595 6.97667 105.762 7.07C105.928 7.15667 106.062 7.28333 106.162 7.45C106.262 7.61667 106.312 7.83 106.312 8.09C106.312 8.37 106.245 8.59667 106.112 8.77C105.978 8.94333 105.792 9.08667 105.552 9.2V9.21C105.852 9.27 106.088 9.41 106.262 9.63C106.442 9.85 106.532 10.1333 106.532 10.48C106.532 10.7 106.492 10.9033 106.412 11.09C106.338 11.2767 106.232 11.4367 106.092 11.57C105.952 11.7033 105.785 11.81 105.592 11.89C105.398 11.9633 105.188 12 104.962 12H102.152V6.83ZM104.802 11.28C105.082 11.28 105.292 11.2 105.432 11.04C105.578 10.8733 105.652 10.6667 105.652 10.42C105.652 10.1867 105.575 10 105.422 9.86C105.268 9.72 105.012 9.65 104.652 9.65H102.992V11.28H104.802ZM104.452 8.95C104.818 8.95 105.072 8.88333 105.212 8.75C105.358 8.61667 105.432 8.44 105.432 8.22C105.432 8.00667 105.362 7.84333 105.222 7.73C105.082 7.61 104.825 7.55 104.452 7.55H102.992V8.95H104.452ZM109.782 12.11C109.369 12.11 109.005 12.0433 108.692 11.91C108.385 11.77 108.125 11.58 107.912 11.34C107.699 11.0933 107.539 10.8067 107.432 10.48C107.325 10.1533 107.272 9.8 107.272 9.42C107.272 9.04 107.325 8.68667 107.432 8.36C107.539 8.02667 107.699 7.74 107.912 7.5C108.125 7.25333 108.385 7.06 108.692 6.92C109.005 6.78 109.369 6.71 109.782 6.71C110.189 6.71 110.549 6.78 110.862 6.92C111.175 7.06 111.439 7.25333 111.652 7.5C111.865 7.74 112.025 8.02667 112.132 8.36C112.239 8.68667 112.292 9.04 112.292 9.42C112.292 9.8 112.239 10.1533 112.132 10.48C112.025 10.8067 111.865 11.0933 111.652 11.34C111.439 11.58 111.175 11.77 110.862 11.91C110.549 12.0433 110.189 12.11 109.782 12.11ZM109.782 11.37C110.002 11.37 110.209 11.3267 110.402 11.24C110.602 11.1533 110.775 11.03 110.922 10.87C111.069 10.7033 111.182 10.5 111.262 10.26C111.349 10.0133 111.392 9.73333 111.392 9.42C111.392 9.10667 111.349 8.83 111.262 8.59C111.182 8.34333 111.069 8.13667 110.922 7.97C110.775 7.80333 110.602 7.67667 110.402 7.59C110.209 7.50333 110.002 7.46 109.782 7.46C109.562 7.46 109.352 7.50333 109.152 7.59C108.959 7.67667 108.789 7.80333 108.642 7.97C108.495 8.13667 108.379 8.34333 108.292 8.59C108.212 8.83 108.172 9.10667 108.172 9.42C108.172 9.73333 108.212 10.0133 108.292 10.26C108.379 10.5 108.495 10.7033 108.642 10.87C108.789 11.03 108.959 11.1533 109.152 11.24C109.352 11.3267 109.562 11.37 109.782 11.37ZM112.684 11.25H113.294C113.368 11.11 113.441 10.92 113.514 10.68C113.594 10.4333 113.664 10.1633 113.724 9.87C113.791 9.57 113.844 9.25333 113.884 8.92C113.924 8.58667 113.944 8.26 113.944 7.94V6.83H117.684V11.25H118.384V13.57H117.574V12H113.494V13.57H112.684V11.25ZM116.834 11.25V7.58H114.774V8.02C114.774 8.34667 114.754 8.67333 114.714 9C114.681 9.32 114.634 9.62333 114.574 9.91C114.514 10.1967 114.448 10.4567 114.374 10.69C114.308 10.9233 114.241 11.11 114.174 11.25H116.834ZM121.323 12.11C120.93 12.11 120.58 12.0467 120.273 11.92C119.973 11.7933 119.72 11.6133 119.513 11.38C119.313 11.1467 119.16 10.87 119.053 10.55C118.953 10.23 118.903 9.87333 118.903 9.48C118.903 9.09333 118.953 8.73333 119.053 8.4C119.153 8.06 119.303 7.76667 119.503 7.52C119.71 7.26667 119.963 7.07 120.263 6.93C120.57 6.78333 120.93 6.71 121.343 6.71C121.636 6.71 121.91 6.74667 122.163 6.82C122.423 6.88667 122.65 6.99333 122.843 7.14C123.043 7.28667 123.206 7.47333 123.333 7.7C123.46 7.92 123.54 8.18333 123.573 8.49H122.693C122.626 8.16333 122.486 7.91 122.273 7.73C122.06 7.55 121.773 7.46 121.413 7.46C121.106 7.46 120.85 7.51667 120.643 7.63C120.436 7.74333 120.27 7.89333 120.143 8.08C120.023 8.26667 119.936 8.48333 119.883 8.73C119.83 8.97 119.803 9.22 119.803 9.48C119.803 9.72 119.83 9.95333 119.883 10.18C119.943 10.4067 120.033 10.61 120.153 10.79C120.273 10.9633 120.426 11.1033 120.613 11.21C120.806 11.3167 121.04 11.37 121.313 11.37C121.733 11.37 122.06 11.26 122.293 11.04C122.533 10.82 122.68 10.51 122.733 10.11H123.603C123.51 10.7567 123.273 11.2533 122.893 11.6C122.513 11.94 121.99 12.11 121.323 12.11ZM125.804 7.58H123.954V6.83H128.504V7.58H126.654V12H125.804V7.58ZM129.183 6.83H131.573C131.8 6.83 132.016 6.84667 132.223 6.88C132.436 6.91333 132.626 6.97667 132.793 7.07C132.96 7.15667 133.093 7.28333 133.193 7.45C133.293 7.61667 133.343 7.83 133.343 8.09C133.343 8.37 133.276 8.59667 133.143 8.77C133.01 8.94333 132.823 9.08667 132.583 9.2V9.21C132.883 9.27 133.12 9.41 133.293 9.63C133.473 9.85 133.563 10.1333 133.563 10.48C133.563 10.7 133.523 10.9033 133.443 11.09C133.37 11.2767 133.263 11.4367 133.123 11.57C132.983 11.7033 132.816 11.81 132.623 11.89C132.43 11.9633 132.22 12 131.993 12H129.183V6.83ZM131.833 11.28C132.113 11.28 132.323 11.2 132.463 11.04C132.61 10.8733 132.683 10.6667 132.683 10.42C132.683 10.1867 132.606 10 132.453 9.86C132.3 9.72 132.043 9.65 131.683 9.65H130.023V11.28H131.833ZM131.483 8.95C131.85 8.95 132.103 8.88333 132.243 8.75C132.39 8.61667 132.463 8.44 132.463 8.22C132.463 8.00667 132.393 7.84333 132.253 7.73C132.113 7.61 131.856 7.55 131.483 7.55H130.023V8.95H131.483ZM136.813 12.11C136.4 12.11 136.037 12.0433 135.723 11.91C135.417 11.77 135.157 11.58 134.943 11.34C134.73 11.0933 134.57 10.8067 134.463 10.48C134.357 10.1533 134.303 9.8 134.303 9.42C134.303 9.04 134.357 8.68667 134.463 8.36C134.57 8.02667 134.73 7.74 134.943 7.5C135.157 7.25333 135.417 7.06 135.723 6.92C136.037 6.78 136.4 6.71 136.813 6.71C137.22 6.71 137.58 6.78 137.893 6.92C138.207 7.06 138.47 7.25333 138.683 7.5C138.897 7.74 139.057 8.02667 139.163 8.36C139.27 8.68667 139.323 9.04 139.323 9.42C139.323 9.8 139.27 10.1533 139.163 10.48C139.057 10.8067 138.897 11.0933 138.683 11.34C138.47 11.58 138.207 11.77 137.893 11.91C137.58 12.0433 137.22 12.11 136.813 12.11ZM136.813 11.37C137.033 11.37 137.24 11.3267 137.433 11.24C137.633 11.1533 137.807 11.03 137.953 10.87C138.1 10.7033 138.213 10.5 138.293 10.26C138.38 10.0133 138.423 9.73333 138.423 9.42C138.423 9.10667 138.38 8.83 138.293 8.59C138.213 8.34333 138.1 8.13667 137.953 7.97C137.807 7.80333 137.633 7.67667 137.433 7.59C137.24 7.50333 137.033 7.46 136.813 7.46C136.593 7.46 136.383 7.50333 136.183 7.59C135.99 7.67667 135.82 7.80333 135.673 7.97C135.527 8.13667 135.41 8.34333 135.323 8.59C135.243 8.83 135.203 9.10667 135.203 9.42C135.203 9.73333 135.243 10.0133 135.323 10.26C135.41 10.5 135.527 10.7033 135.673 10.87C135.82 11.03 135.99 11.1533 136.183 11.24C136.383 11.3267 136.593 11.37 136.813 11.37ZM72.64 15.83H76.86V21H76.01V16.58H73.49V21H72.64V15.83ZM80.368 21.11C79.9547 21.11 79.5914 21.0433 79.278 20.91C78.9714 20.77 78.7114 20.58 78.498 20.34C78.2847 20.0933 78.1247 19.8067 78.018 19.48C77.9114 19.1533 77.858 18.8 77.858 18.42C77.858 18.04 77.9114 17.6867 78.018 17.36C78.1247 17.0267 78.2847 16.74 78.498 16.5C78.7114 16.2533 78.9714 16.06 79.278 15.92C79.5914 15.78 79.9547 15.71 80.368 15.71C80.7747 15.71 81.1347 15.78 81.448 15.92C81.7614 16.06 82.0247 16.2533 82.238 16.5C82.4514 16.74 82.6114 17.0267 82.718 17.36C82.8247 17.6867 82.878 18.04 82.878 18.42C82.878 18.8 82.8247 19.1533 82.718 19.48C82.6114 19.8067 82.4514 20.0933 82.238 20.34C82.0247 20.58 81.7614 20.77 81.448 20.91C81.1347 21.0433 80.7747 21.11 80.368 21.11ZM80.368 20.37C80.588 20.37 80.7947 20.3267 80.988 20.24C81.188 20.1533 81.3614 20.03 81.508 19.87C81.6547 19.7033 81.768 19.5 81.848 19.26C81.9347 19.0133 81.978 18.7333 81.978 18.42C81.978 18.1067 81.9347 17.83 81.848 17.59C81.768 17.3433 81.6547 17.1367 81.508 16.97C81.3614 16.8033 81.188 16.6767 80.988 16.59C80.7947 16.5033 80.588 16.46 80.368 16.46C80.148 16.46 79.938 16.5033 79.738 16.59C79.5447 16.6767 79.3747 16.8033 79.228 16.97C79.0814 17.1367 78.9647 17.3433 78.878 17.59C78.798 17.83 78.758 18.1067 78.758 18.42C78.758 18.7333 78.798 19.0133 78.878 19.26C78.9647 19.5 79.0814 19.7033 79.228 19.87C79.3747 20.03 79.5447 20.1533 79.738 20.24C79.938 20.3267 80.148 20.37 80.368 20.37ZM83.8402 21.06C83.7536 21.06 83.6636 21.05 83.5702 21.03C83.4769 21.0167 83.4002 21.0033 83.3402 20.99V20.24C83.4069 20.26 83.4669 20.2733 83.5202 20.28C83.5802 20.2867 83.6369 20.29 83.6902 20.29C83.9102 20.29 84.0769 20.2033 84.1902 20.03C84.3102 19.8567 84.3969 19.59 84.4502 19.23C84.5102 18.87 84.5469 18.41 84.5602 17.85C84.5736 17.2833 84.5869 16.61 84.6002 15.83H88.2302V21H87.3802V16.58H85.4202C85.4002 17.1867 85.3769 17.7633 85.3502 18.31C85.3302 18.85 85.2736 19.3233 85.1802 19.73C85.0869 20.1367 84.9369 20.46 84.7302 20.7C84.5236 20.94 84.2269 21.06 83.8402 21.06ZM90.045 23.06C89.945 23.06 89.845 23.0533 89.745 23.04C89.645 23.0267 89.5483 23.0033 89.455 22.97V22.19C89.535 22.2167 89.615 22.2433 89.695 22.27C89.7817 22.2967 89.8683 22.31 89.955 22.31C90.1283 22.31 90.2683 22.27 90.375 22.19C90.4817 22.11 90.575 21.9933 90.655 21.84L91.005 20.97L88.955 15.83H89.915L91.425 20.06H91.445L92.895 15.83H93.795L91.545 21.68C91.445 21.9333 91.345 22.1467 91.245 22.32C91.1517 22.4933 91.045 22.6333 90.925 22.74C90.8117 22.8533 90.6817 22.9333 90.535 22.98C90.395 23.0333 90.2317 23.06 90.045 23.06ZM94.515 15.83H98.735V21H97.885V16.58H95.365V21H94.515V15.83ZM100.043 15.83H100.893V16.53H100.913C101.053 16.2433 101.273 16.0367 101.573 15.91C101.873 15.7767 102.203 15.71 102.563 15.71C102.963 15.71 103.31 15.7833 103.603 15.93C103.903 16.0767 104.15 16.2767 104.343 16.53C104.543 16.7767 104.693 17.0633 104.793 17.39C104.893 17.7167 104.943 18.0633 104.943 18.43C104.943 18.8033 104.893 19.1533 104.793 19.48C104.7 19.8 104.553 20.0833 104.353 20.33C104.16 20.57 103.913 20.76 103.613 20.9C103.32 21.04 102.976 21.11 102.583 21.11C102.45 21.11 102.306 21.0967 102.153 21.07C102 21.0433 101.846 21 101.693 20.94C101.54 20.88 101.393 20.8 101.253 20.7C101.12 20.5933 101.006 20.4633 100.913 20.31H100.893V22.97H100.043V15.83ZM102.493 20.37C102.78 20.37 103.023 20.3133 103.223 20.2C103.423 20.0867 103.583 19.9367 103.703 19.75C103.823 19.5633 103.91 19.35 103.963 19.11C104.016 18.87 104.043 18.6233 104.043 18.37C104.043 18.13 104.01 17.8967 103.943 17.67C103.883 17.4367 103.786 17.23 103.653 17.05C103.526 16.87 103.36 16.7267 103.153 16.62C102.953 16.5133 102.716 16.46 102.443 16.46C102.156 16.46 101.913 16.5167 101.713 16.63C101.513 16.7433 101.35 16.8933 101.223 17.08C101.096 17.26 101.003 17.4667 100.943 17.7C100.89 17.9333 100.863 18.17 100.863 18.41C100.863 18.6633 100.893 18.91 100.953 19.15C101.013 19.3833 101.106 19.59 101.233 19.77C101.366 19.95 101.536 20.0967 101.743 20.21C101.95 20.3167 102.2 20.37 102.493 20.37ZM105.941 15.83H106.791V20.05L109.231 15.83H110.321V21H109.471V16.78L107.031 21H105.941V15.83ZM115.635 21H111.605V15.83H112.455V20.25H114.895V15.83H115.745V20.25H116.445V22.57H115.635V21ZM119.449 21.11C119.036 21.11 118.673 21.0433 118.359 20.91C118.053 20.7767 117.796 20.59 117.589 20.35C117.383 20.11 117.226 19.8233 117.119 19.49C117.019 19.1567 116.969 18.7933 116.969 18.4C116.969 18.0133 117.029 17.6567 117.149 17.33C117.269 16.9967 117.436 16.71 117.649 16.47C117.869 16.23 118.126 16.0433 118.419 15.91C118.719 15.7767 119.046 15.71 119.399 15.71C119.859 15.71 120.239 15.8067 120.539 16C120.846 16.1867 121.089 16.4267 121.269 16.72C121.456 17.0133 121.583 17.3333 121.649 17.68C121.723 18.0267 121.753 18.3567 121.739 18.67H117.869C117.863 18.8967 117.889 19.1133 117.949 19.32C118.009 19.52 118.106 19.7 118.239 19.86C118.373 20.0133 118.543 20.1367 118.749 20.23C118.956 20.3233 119.199 20.37 119.479 20.37C119.839 20.37 120.133 20.2867 120.359 20.12C120.593 19.9533 120.746 19.7 120.819 19.36H121.659C121.546 19.9467 121.296 20.3867 120.909 20.68C120.523 20.9667 120.036 21.11 119.449 21.11ZM120.839 17.92C120.826 17.72 120.779 17.53 120.699 17.35C120.626 17.17 120.523 17.0167 120.389 16.89C120.263 16.7567 120.109 16.6533 119.929 16.58C119.756 16.5 119.563 16.46 119.349 16.46C119.129 16.46 118.929 16.5 118.749 16.58C118.576 16.6533 118.426 16.7567 118.299 16.89C118.173 17.0233 118.073 17.18 117.999 17.36C117.926 17.5333 117.883 17.72 117.869 17.92H120.839ZM122.62 15.83H126.84V21H125.99V16.58H123.47V21H122.62V15.83ZM130.349 21.11C129.935 21.11 129.572 21.0433 129.259 20.91C128.952 20.77 128.692 20.58 128.479 20.34C128.265 20.0933 128.105 19.8067 127.999 19.48C127.892 19.1533 127.839 18.8 127.839 18.42C127.839 18.04 127.892 17.6867 127.999 17.36C128.105 17.0267 128.265 16.74 128.479 16.5C128.692 16.2533 128.952 16.06 129.259 15.92C129.572 15.78 129.935 15.71 130.349 15.71C130.755 15.71 131.115 15.78 131.429 15.92C131.742 16.06 132.005 16.2533 132.219 16.5C132.432 16.74 132.592 17.0267 132.699 17.36C132.805 17.6867 132.859 18.04 132.859 18.42C132.859 18.8 132.805 19.1533 132.699 19.48C132.592 19.8067 132.432 20.0933 132.219 20.34C132.005 20.58 131.742 20.77 131.429 20.91C131.115 21.0433 130.755 21.11 130.349 21.11ZM130.349 20.37C130.569 20.37 130.775 20.3267 130.969 20.24C131.169 20.1533 131.342 20.03 131.489 19.87C131.635 19.7033 131.749 19.5 131.829 19.26C131.915 19.0133 131.959 18.7333 131.959 18.42C131.959 18.1067 131.915 17.83 131.829 17.59C131.749 17.3433 131.635 17.1367 131.489 16.97C131.342 16.8033 131.169 16.6767 130.969 16.59C130.775 16.5033 130.569 16.46 130.349 16.46C130.129 16.46 129.919 16.5033 129.719 16.59C129.525 16.6767 129.355 16.8033 129.209 16.97C129.062 17.1367 128.945 17.3433 128.859 17.59C128.779 17.83 128.739 18.1067 128.739 18.42C128.739 18.7333 128.779 19.0133 128.859 19.26C128.945 19.5 129.062 19.7033 129.209 19.87C129.355 20.03 129.525 20.1533 129.719 20.24C129.919 20.3267 130.129 20.37 130.349 20.37ZM133.861 15.83H136.251C136.477 15.83 136.694 15.8467 136.901 15.88C137.114 15.9133 137.304 15.9767 137.471 16.07C137.637 16.1567 137.771 16.2833 137.871 16.45C137.971 16.6167 138.021 16.83 138.021 17.09C138.021 17.37 137.954 17.5967 137.821 17.77C137.687 17.9433 137.501 18.0867 137.261 18.2V18.21C137.561 18.27 137.797 18.41 137.971 18.63C138.151 18.85 138.241 19.1333 138.241 19.48C138.241 19.7 138.201 19.9033 138.121 20.09C138.047 20.2767 137.941 20.4367 137.801 20.57C137.661 20.7033 137.494 20.81 137.301 20.89C137.107 20.9633 136.897 21 136.671 21H133.861V15.83ZM136.511 20.28C136.791 20.28 137.001 20.2 137.141 20.04C137.287 19.8733 137.361 19.6667 137.361 19.42C137.361 19.1867 137.284 19 137.131 18.86C136.977 18.72 136.721 18.65 136.361 18.65H134.701V20.28H136.511ZM136.161 17.95C136.527 17.95 136.781 17.8833 136.921 17.75C137.067 17.6167 137.141 17.44 137.141 17.22C137.141 17.0067 137.071 16.8433 136.931 16.73C136.791 16.61 136.534 16.55 136.161 16.55H134.701V17.95H136.161Z" fill="#202020"/>
<mask id="mask0_1187_930" style="mask-type:luminance" maskUnits="userSpaceOnUse" x="3" y="4" width="17" height="19">
<path d="M3.44092 4.17529H19.7939V22.5077H3.44092V4.17529Z" fill="white"/>
</mask>
<g mask="url(#mask0_1187_930)">
<path d="M4.22845 8.44001C4.30787 9.49843 4.49425 11.3095 4.91263 13.11C5.20071 14.3514 5.59853 15.5893 6.14435 16.5633C6.95517 18.011 8.08879 19.1618 9.15649 20.0211C10.1269 20.8023 11.0429 21.3443 11.6191 21.6518C12.1926 21.3461 13.106 20.8058 14.0764 20.0255C15.1432 19.1671 16.2787 18.0145 17.0921 16.5633C17.6353 15.5911 18.0331 14.3541 18.3203 13.1117C18.7377 11.3104 18.925 9.49843 19.0044 8.44001C17.9626 7.96101 17.2241 7.32825 16.7041 6.67509C16.2278 6.07706 15.9316 5.4612 15.7497 4.93422H7.48676C7.27178 5.55623 6.89897 6.30185 6.25497 6.9959C5.75903 7.5327 5.099 8.04007 4.22845 8.44001ZM4.17943 13.2771C3.71296 11.2642 3.52652 9.24958 3.45874 8.22761L3.44092 7.96015L3.68975 7.85617C4.57273 7.48909 5.22392 7.00213 5.70016 6.48761C6.34776 5.78911 6.68133 5.03548 6.85081 4.45428L6.93016 4.18237H16.3054L16.3857 4.45428C16.5329 4.95907 16.804 5.59447 17.2928 6.20768C17.7842 6.82353 18.5023 7.42249 19.5431 7.85617L19.792 7.96015L19.7742 8.22761C19.7064 9.24958 19.5191 11.2659 19.0535 13.2788C18.7529 14.5807 18.331 15.8853 17.7486 16.9277C16.8798 18.4784 15.6757 19.703 14.5474 20.6103C13.4253 21.5132 12.3692 22.1113 11.7913 22.4081L11.6182 22.4961L11.447 22.4081C10.8655 22.1095 9.80847 21.5097 8.68549 20.6059C7.5554 19.6968 6.35308 18.474 5.48792 16.9277C4.90365 15.8835 4.48088 14.578 4.17943 13.2771Z" fill="#202020"/>
</g>
<path d="M11.3975 7.49728H12.8948C14.4703 7.4039 14.8759 7.38843 15.1099 7.38843H15.3595C18.4636 7.38843 20.086 8.24318 20.086 9.85958C20.086 10.6522 19.7117 11.2274 18.9785 11.6003C18.4794 11.8489 18.1206 12.0045 17.1066 12.2064C18.1206 12.3307 18.5574 12.4863 19.1347 12.7816C20.0705 13.2943 20.5854 14.1491 20.5854 15.1439C20.5854 15.7188 20.3824 16.294 20.0236 16.7136C19.3218 17.5374 18.3389 17.8637 16.4204 17.8637H11.3975V17.646C11.881 17.4441 12.0213 17.1954 12.0213 16.6202V8.74073C12.0213 8.16555 11.881 7.91692 11.3975 7.71497V7.49728ZM14.564 12.0199H15.2816C16.9505 12.0199 17.7929 11.305 17.7929 9.87505C17.7929 8.56973 16.9819 7.7926 15.6559 7.7926C14.8604 7.7926 14.564 8.04123 14.564 8.70951V12.0199ZM14.564 12.533V16.6048C14.564 17.2421 14.8759 17.4753 15.7028 17.4753C16.124 17.4753 16.4669 17.4131 16.7478 17.3043C17.5123 16.9777 18.0583 16.0141 18.0583 14.9574C18.0583 13.3565 17.1377 12.533 15.344 12.533H14.564Z" fill="#202020"/>
<path d="M30.4897 18.5631V18.9049C27.4169 17.7393 25.9038 16.1229 25.1548 13.0769C25.0456 13.0923 24.9521 13.0923 24.9053 13.0923H24.7026C24.5154 13.0923 24.3593 13.0923 24.0629 13.0456V16.6202C24.0629 17.1954 24.2032 17.444 24.6868 17.6459V17.8636H20.8809V17.6459C21.3644 17.444 21.5047 17.1954 21.5047 16.6202V8.74066C21.5047 8.16548 21.3644 7.91685 20.8809 7.7149V7.49721H22.0817C22.3471 7.49721 22.8307 7.48174 23.4701 7.43505C24.219 7.38836 25.0769 7.35742 25.5915 7.35742C28.4775 7.35742 30.053 8.36743 30.053 10.217C30.053 11.0251 29.6942 11.7712 29.0234 12.2685C28.7428 12.4862 28.2434 12.7036 27.5417 12.9213C28.4151 15.7967 29.4915 17.9413 30.4897 18.5631ZM24.0629 8.88045V12.5638C24.2659 12.5793 24.4062 12.5951 24.5154 12.5951H24.8429C26.6056 12.5951 27.5103 11.7867 27.5103 10.2325C27.5103 8.86498 26.4497 7.79253 25.1393 7.79253C24.3748 7.79253 24.0629 8.08786 24.0629 8.88045Z" fill="#202020"/>
<path d="M31.799 14.5377L31.1438 16.6202C31.0969 16.729 31.0814 16.8533 31.0814 16.9622C31.0814 17.3197 31.3154 17.5216 31.9862 17.6617V17.8636H29.3032V17.6617C29.9116 17.4907 30.2235 17.2263 30.4575 16.6202L33.4838 7.40381H35.4804L38.4443 16.6202C38.647 17.1953 38.9279 17.5374 39.3022 17.6617V17.8636H35.496V17.6617C35.8548 17.5374 35.9951 17.3818 35.9951 17.071C35.9951 16.9467 35.964 16.7912 35.9016 16.6202L35.2309 14.5377H31.799ZM32.0486 13.9158H35.0279L33.5306 9.33101L32.0486 13.9158Z" fill="#202020"/>
<path d="M43.9183 17.8637H41.9374L38.8799 8.74077C38.6772 8.16559 38.4118 7.87027 38.022 7.69926V7.49731H41.8127V7.69926C41.5004 7.82357 41.3446 8.0258 41.3446 8.28991C41.3446 8.42969 41.3757 8.56976 41.438 8.74077L43.8717 16.1076L46.1959 8.74077C46.2272 8.63192 46.2427 8.52307 46.2427 8.41422C46.2427 8.0258 46.0242 7.83933 45.3535 7.69926V7.49731H47.9585V7.69926C47.3971 7.87027 47.0693 8.16559 46.8666 8.74077L43.9183 17.8637Z" fill="#202020"/>
<path d="M55.1332 7.49731L55.3049 9.48667H54.9461C54.4625 8.36753 53.7762 7.88573 52.5437 7.88573H51.7013C50.9682 7.88573 50.6718 8.13437 50.6718 8.75624V11.8644H52.0915C53.0897 11.8644 53.5888 11.5382 53.698 10.7923H54.0258V13.4499H53.698C53.6512 12.6573 53.1989 12.3153 52.0915 12.3153H50.6718V16.4805C50.6718 17.2731 50.9527 17.4753 51.9977 17.4753H52.7622C54.2129 17.4753 55.0395 16.9156 55.5389 15.5945L55.8663 15.7188L55.3049 17.8637H47.4897V17.646C47.9733 17.4441 48.1136 17.1955 48.1136 16.6203V8.74077C48.1136 8.16559 47.9733 7.91696 47.4897 7.71501V7.49731H55.1332Z" fill="#202020"/>
<path d="M65.6303 18.5631V18.9049C62.5575 17.7393 61.0444 16.1229 60.2955 13.0769C60.1862 13.0923 60.0928 13.0923 60.0459 13.0923H59.8432C59.6561 13.0923 59.4999 13.0923 59.2035 13.0456V16.6202C59.2035 17.1954 59.3438 17.444 59.8274 17.6459V17.8636H56.0215V17.6459C56.5051 17.444 56.6454 17.1954 56.6454 16.6202V8.74066C56.6454 8.16548 56.5051 7.91685 56.0215 7.7149V7.49721H57.2224C57.4877 7.49721 57.9713 7.48174 58.6107 7.43505C59.3596 7.38836 60.2175 7.35742 60.7322 7.35742C63.6181 7.35742 65.1936 8.36743 65.1936 10.217C65.1936 11.0251 64.8348 11.7712 64.1641 12.2685C63.8835 12.4862 63.3841 12.7036 62.6823 12.9213C63.5557 15.7967 64.6321 17.9413 65.6303 18.5631ZM59.2035 8.88045V12.5638C59.4065 12.5793 59.5468 12.5951 59.6561 12.5951H59.9835C61.7462 12.5951 62.6509 11.7867 62.6509 10.2325C62.6509 8.86498 61.5904 7.79253 60.2799 7.79253C59.5155 7.79253 59.2035 8.08786 59.2035 8.88045Z" fill="#202020"/>
<mask id="mask1_1187_930" style="mask-type:luminance" maskUnits="userSpaceOnUse" x="9" y="7" width="3" height="3">
<path d="M9.05273 7.32031H11.3586V9.69322H9.05273V7.32031Z" fill="#202020"/>
</mask>
<g mask="url(#mask1_1187_930)">
<path d="M9.43096 7.76475L9.45519 7.83486C9.48063 7.93254 9.51527 8.02678 9.54639 8.12216L9.56494 8.16699L9.56954 8.18883C9.57874 8.20946 9.58686 8.2313 9.59376 8.25314L9.64113 8.27498C9.69884 8.28536 9.75778 8.28651 9.81434 8.29568C9.90095 8.30721 9.98296 8.33936 10.0684 8.35311C10.1539 8.36693 10.2485 8.38992 10.3363 8.41519C10.3456 8.48186 10.3525 8.54968 10.3709 8.61513C10.3894 8.68066 10.3964 8.76229 10.4172 8.83355C10.4379 8.9048 10.4472 8.9714 10.4599 9.04036L10.4726 9.07602C10.4818 9.13231 10.4946 9.1886 10.5049 9.24495C10.5598 9.27095 10.6129 9.30002 10.6643 9.33225C10.8214 9.42763 10.9784 9.52302 11.1424 9.6058C11.2036 9.64025 11.2683 9.67133 11.3376 9.68737C11.4069 9.70348 11.4819 9.64948 11.5501 9.61955C11.6886 9.55524 11.8168 9.47246 11.9508 9.39892C12.02 9.35638 12.087 9.31048 12.1575 9.27138C12.184 9.25505 12.2086 9.23629 12.2314 9.21509C12.2419 9.14069 12.2564 9.06714 12.2753 8.99439C12.3053 8.87258 12.3365 8.75076 12.3573 8.62666L12.3642 8.59451C12.3758 8.54739 12.3792 8.50027 12.3919 8.45429L12.3954 8.42092C12.4508 8.39565 12.512 8.38762 12.572 8.3761C12.6529 8.35662 12.7349 8.34165 12.8158 8.31981C12.9266 8.29109 13.0421 8.28185 13.1541 8.25658C13.1726 8.17272 13.2061 8.09345 13.228 8.00952C13.2684 7.89687 13.2973 7.78201 13.3331 7.66822C13.3562 7.61881 13.3562 7.55557 13.3977 7.51762C13.4798 7.48432 13.5629 7.45217 13.6426 7.41078V7.32227C13.526 7.34296 13.4059 7.34182 13.2892 7.36595C13.1726 7.39008 13.0328 7.38664 12.907 7.41192C12.7811 7.4372 12.6668 7.42689 12.549 7.44759C12.4843 7.44637 12.4208 7.46363 12.3561 7.46248L12.3434 7.47172L12.2475 7.4763C12.1991 7.48661 12.1494 7.48661 12.1021 7.49814C12.0547 7.5096 11.9854 7.50387 11.9277 7.51418C11.796 7.52457 11.662 7.52915 11.5316 7.55099C11.4819 7.55328 11.4334 7.55557 11.3849 7.5613C11.1955 7.55557 11.0073 7.52457 10.819 7.51648C10.7417 7.50616 10.662 7.50845 10.5869 7.48776C10.3745 7.47859 10.1654 7.43262 9.95177 7.42574C9.87788 7.41536 9.80392 7.41307 9.73119 7.39466C9.6284 7.38779 9.52677 7.37282 9.42399 7.36709C9.30856 7.34296 9.19076 7.33609 9.0741 7.33494L9.05908 7.39008C9.16186 7.45331 9.27622 7.49349 9.379 7.55557C9.38935 7.62568 9.41364 7.69464 9.43096 7.76475Z" fill="#202020"/>
</g>
<mask id="mask2_1187_930" style="mask-type:luminance" maskUnits="userSpaceOnUse" x="6" y="8" width="6" height="10">
<path d="M6.68066 8.20825H11.3589V17.921H6.68066V8.20825Z" fill="#202020"/>
</mask>
<g mask="url(#mask2_1187_930)">
<path d="M15.7726 13.4889C15.6825 13.4142 15.6213 13.3108 15.5301 13.2372C15.4331 13.135 15.3326 13.035 15.2298 12.9385C15.149 12.8523 15.0624 12.7695 14.9815 12.6833C14.9977 12.6396 15.0312 12.6052 15.052 12.5638C15.1016 12.4707 15.1686 12.3868 15.2171 12.2938C15.2656 12.2007 15.3222 12.142 15.3627 12.0593C15.4031 11.9765 15.4573 11.8938 15.515 11.818C15.5786 11.7237 15.6363 11.6261 15.6987 11.5307C15.7541 11.4571 15.7946 11.3743 15.8523 11.3019C15.91 11.2295 15.9724 11.1238 16.0371 11.0388L16.0336 11.0204C15.9574 10.9894 15.8915 10.9377 15.8142 10.9089C15.6629 10.8262 15.5035 10.7595 15.3488 10.6825C15.1709 10.594 14.9862 10.5227 14.8141 10.4251C14.7413 10.3918 14.6686 10.3584 14.5924 10.3297C14.5924 10.4998 14.62 10.6687 14.6143 10.8388C14.5833 10.8043 14.5549 10.7679 14.5288 10.7296C14.4711 10.64 14.3903 10.5676 14.329 10.4803C14.2679 10.3929 14.1893 10.3044 14.1316 10.2079C14.0486 10.1045 13.9717 9.99683 13.9007 9.88497C13.8314 9.78959 13.7563 9.69764 13.6904 9.59996C13.6304 9.52405 13.5657 9.45516 13.5126 9.37582L13.5472 9.35863L13.5773 9.35627L13.5888 9.34825C13.6208 9.34302 13.6524 9.33571 13.6835 9.32641C13.7494 9.31036 13.8163 9.30227 13.8798 9.28043C13.9814 9.26088 14.0819 9.23102 14.1847 9.21612C14.2875 9.20116 14.3683 9.1713 14.4607 9.15289L14.4919 9.14716C14.5351 9.13549 14.579 9.1274 14.6236 9.12303C14.6293 9.27241 14.6582 9.42065 14.6605 9.57117C14.679 9.75507 14.6963 9.93782 14.7079 10.1217C14.7264 10.1562 14.7437 10.1941 14.7783 10.2136C14.813 10.2331 14.8649 10.2354 14.9076 10.2493C14.9504 10.263 15.022 10.2768 15.0716 10.309L15.1236 10.3113C15.1474 10.293 15.1724 10.2765 15.1986 10.2619L15.2102 10.2274C15.1963 10.1734 15.1917 10.1171 15.1813 10.0631C15.1559 9.96081 15.1559 9.85504 15.1317 9.75278C15.124 9.71948 15.1201 9.68582 15.1201 9.65166L15.1109 9.63899C15.1028 9.51145 15.0751 9.3862 15.0624 9.25859C15.0565 9.19213 15.0465 9.12625 15.0323 9.06094C15.0243 8.98511 15.0162 8.90927 15.0035 8.83458C14.9931 8.78746 14.9527 8.75982 14.9157 8.73339C14.8043 8.64159 14.7003 8.54205 14.6039 8.43463C14.5288 8.36682 14.463 8.29098 14.3903 8.22087L14.321 8.23348C14.194 8.26799 14.0611 8.27258 13.9376 8.31855L13.9087 8.32313C13.732 8.37713 13.5507 8.41623 13.3729 8.46793C13.2735 8.49665 13.1731 8.52314 13.0726 8.54728L13.0495 8.5553C12.9964 8.56905 12.9421 8.57943 12.889 8.58974C12.8082 8.62082 12.7181 8.61617 12.6395 8.65527L12.6361 8.69322C12.6176 8.80235 12.6014 8.91156 12.5737 9.01841C12.5691 9.07247 12.5564 9.12647 12.5552 9.18046L12.5876 9.18734C12.6915 9.26668 12.7828 9.36207 12.8797 9.44936C12.956 9.51145 13.0206 9.58499 13.0946 9.64937C13.1685 9.71368 13.2193 9.75622 13.2781 9.81257C13.3613 9.88726 13.441 9.96539 13.5299 10.0332C13.6188 10.101 13.7066 10.163 13.7805 10.2447C13.8198 10.2848 13.8383 10.3378 13.8741 10.3802C13.9099 10.4228 13.9283 10.4837 13.9653 10.5308C14.0022 10.578 14.0427 10.6538 14.0842 10.7135C14.1258 10.7733 14.1605 10.8353 14.2043 10.8917C14.2932 11.0043 14.366 11.1284 14.4515 11.2434C14.5161 11.3272 14.5623 11.4226 14.6293 11.5042C14.6767 11.5582 14.7136 11.6203 14.7563 11.6778C14.7032 11.7409 14.6501 11.8042 14.5947 11.8651C14.4884 11.9995 14.3752 12.1294 14.2633 12.2592C14.1512 12.4075 14.0172 12.5374 13.9087 12.6879C13.8475 12.7649 13.7817 12.8361 13.7239 12.9155C13.6662 12.9948 13.6061 13.0442 13.5541 13.1143C13.4629 13.2304 13.3636 13.3406 13.2781 13.4613C13.2389 13.5257 13.2273 13.6004 13.1974 13.6682C13.1754 13.7187 13.165 13.7727 13.1431 13.8222C13.1084 13.9256 13.0784 14.0313 13.0368 14.1325L13.0333 14.1543L13.0149 14.2003C12.9998 14.2474 12.9871 14.2945 12.9698 14.3405L12.9629 14.3612C12.9329 14.4588 12.8925 14.5531 12.859 14.6496C12.8255 14.7462 12.8024 14.8186 12.7747 14.9036L12.7608 14.9369C12.7412 15.0059 12.7423 15.0771 12.7284 15.1472C12.7238 15.1978 12.725 15.2495 12.7215 15.3012L12.7238 15.292C12.7088 15.4391 12.7111 15.5886 12.6753 15.7322C12.6245 15.7138 12.5841 15.677 12.5391 15.6472C12.4988 15.6188 12.4619 15.5866 12.4282 15.5506C12.2595 15.6545 12.0824 15.7414 11.897 15.8115C11.7873 15.8667 11.6741 15.9103 11.5633 15.962C11.5009 15.985 11.4443 16.0241 11.3785 16.0367C11.3334 16.0333 11.2942 16.0103 11.2538 15.993C11.1545 15.9448 11.0482 15.9115 10.9523 15.8575C10.7491 15.7724 10.5366 15.6966 10.3599 15.5621C10.2825 15.6115 10.2005 15.6575 10.1289 15.715C10.1013 15.6931 10.0747 15.6724 10.047 15.6517C10.0331 15.4288 10.0262 15.2058 9.99849 14.9852L9.98921 14.9749V14.9404C9.95227 14.8508 9.9315 14.7542 9.89455 14.6646L9.87026 14.6071C9.83562 14.4922 9.79407 14.3784 9.75483 14.2646L9.73169 14.2049C9.71206 14.1508 9.69704 14.0957 9.67397 14.0429C9.66585 14.0164 9.65895 13.9888 9.65205 13.9624L9.63588 13.9429C9.62531 13.8988 9.61029 13.8562 9.59081 13.8153C9.56422 13.7256 9.5331 13.6372 9.5019 13.5487C9.47761 13.4786 9.43261 13.42 9.3841 13.3648C9.31596 13.2866 9.25825 13.1993 9.18896 13.1212C9.05613 12.9683 8.92913 12.812 8.80435 12.6535C8.59994 12.4017 8.38633 12.1593 8.17847 11.9098C8.11378 11.8329 8.04449 11.7593 7.98563 11.6789C8.05836 11.5743 8.14497 11.48 8.20851 11.3698C8.26623 11.2847 8.32976 11.2031 8.38403 11.1158C8.44872 11.0031 8.53993 10.9101 8.60576 10.7986C8.65543 10.7285 8.69812 10.6549 8.75124 10.5871C8.80435 10.5193 8.84942 10.4239 8.89909 10.3435C8.97067 10.2217 9.09193 10.1446 9.19701 10.055C9.29519 9.98494 9.37253 9.89185 9.46726 9.8183C9.59656 9.69764 9.72709 9.57926 9.85409 9.45631C9.96499 9.35863 10.0689 9.25401 10.1856 9.16435C10.1752 9.11035 10.1683 9.05521 10.159 9.00122C10.1278 8.88628 10.1209 8.76676 10.0908 8.65068C10.0273 8.63113 9.96039 8.62311 9.8957 8.61273C9.83102 8.60242 9.73751 8.57828 9.65895 8.55644C9.55157 8.52658 9.44296 8.5013 9.33558 8.47022L9.30669 8.45762C9.27205 8.44724 9.23625 8.43921 9.20161 8.43005C9.13002 8.40362 9.05498 8.39324 8.9834 8.3714C8.91181 8.34956 8.8275 8.33352 8.75239 8.30587C8.65687 8.28067 8.56027 8.26076 8.46252 8.24615L8.41637 8.23348C8.39733 8.22789 8.37814 8.22331 8.35859 8.21973C8.28355 8.27487 8.22231 8.34727 8.1554 8.41279C8.06181 8.50359 7.9752 8.60127 7.87587 8.68742C7.83663 8.71964 7.80544 8.76218 7.76274 8.79204C7.74542 8.80694 7.71998 8.81961 7.72228 8.84489C7.72113 8.90232 7.71768 8.95983 7.71768 9.01611L7.70848 9.03108C7.70725 9.0931 7.68763 9.15175 7.68303 9.21262C7.67613 9.2563 7.67498 9.29998 7.66456 9.34366C7.6632 9.37424 7.65931 9.40446 7.65299 9.43447C7.63567 9.53673 7.62532 9.64128 7.60685 9.74361C7.58837 9.84587 7.57565 9.91713 7.56523 10.0056C7.55452 10.0397 7.54762 10.0746 7.54446 10.1102C7.53756 10.1814 7.52024 10.2527 7.52024 10.3251L7.59642 10.2929C7.68418 10.2803 7.77661 10.2791 7.8597 10.2447L7.88515 10.24L7.966 10.2159L7.99598 10.2044C8.0041 10.1068 8.02832 10.0114 8.03407 9.91369C8.04794 9.77233 8.07224 9.63097 8.08144 9.48846C8.09071 9.34596 8.09876 9.23797 8.11263 9.11379C8.14842 9.12532 8.18537 9.13563 8.22231 9.14602C8.35399 9.17359 8.48566 9.2023 8.61841 9.22758C8.75124 9.25286 8.91411 9.30113 9.06418 9.32526L9.09883 9.33908C9.14217 9.34975 9.18608 9.35741 9.2305 9.36207C9.19888 9.40847 9.16423 9.45251 9.12657 9.49419C9.03184 9.62638 8.93258 9.75392 8.8367 9.88497C8.74089 10.0159 8.64386 10.1459 8.55725 10.2837C8.51685 10.3412 8.46719 10.3929 8.42672 10.4503C8.37548 10.5215 8.31999 10.5893 8.26048 10.6538C8.20384 10.717 8.16115 10.7906 8.09991 10.8503C8.09991 10.7515 8.11723 10.6538 8.1311 10.5561C8.13549 10.4793 8.14433 10.4031 8.1577 10.3274C8.05024 10.3757 7.93596 10.4113 7.83433 10.471C7.7327 10.5308 7.6126 10.5733 7.50054 10.6228C7.38856 10.6722 7.26961 10.7411 7.1495 10.7917C6.98901 10.8595 6.83886 10.9468 6.68066 11.0181C6.71531 11.0629 6.74413 11.1123 6.77532 11.1594C6.83311 11.2421 6.88853 11.3261 6.94279 11.4099C6.97054 11.4525 7.00748 11.4893 7.0317 11.5341C7.11256 11.6881 7.22339 11.8237 7.31 11.9742C7.39661 12.1248 7.48092 12.2581 7.5745 12.3972C7.62065 12.4764 7.68188 12.5465 7.72458 12.6282C7.7327 12.6477 7.75462 12.6672 7.7419 12.689C7.7061 12.7511 7.64954 12.796 7.59872 12.8454C7.49709 12.9476 7.39201 13.0476 7.28923 13.1487C7.24884 13.1958 7.20722 13.2418 7.16223 13.2855C7.11716 13.3292 7.0675 13.3981 7.01208 13.4464C6.95666 13.4947 6.89083 13.5774 6.81809 13.6291L6.81464 13.6625C6.86775 13.6716 6.91972 13.6854 6.97284 13.6958C7.02595 13.7061 7.11256 13.7245 7.18185 13.744L7.21649 13.7567C7.27076 13.7682 7.32387 13.7831 7.37814 13.7981C7.4324 13.813 7.49594 13.8164 7.55136 13.836C7.67613 13.8739 7.80544 13.8958 7.93251 13.9268L7.9775 13.9394C8.02868 13.9477 8.07914 13.9591 8.1288 13.9739C8.16517 13.9838 8.20211 13.9907 8.23963 13.9946C8.13685 14.1647 8.08259 14.3577 7.98563 14.5312C7.9706 14.5577 7.94516 14.5876 7.96478 14.6186C8.02027 14.722 8.06871 14.8301 8.11608 14.9381C8.22468 15.1001 8.32394 15.2691 8.42672 15.4345C8.53418 15.5771 8.61151 15.738 8.7166 15.8828C8.75203 15.9502 8.78818 16.0172 8.82513 16.0838C8.8298 15.9356 8.82635 15.7885 8.83095 15.6403C8.84015 15.569 8.83785 15.4966 8.84367 15.4242C8.85402 15.3725 8.84597 15.3208 8.85862 15.2691C8.86789 15.0783 8.87831 14.8887 8.89211 14.6979C8.89564 14.676 8.89211 14.6508 8.90944 14.6347C8.96952 14.56 9.04686 14.5025 9.11385 14.4347C9.18084 14.3669 9.2374 14.329 9.29289 14.2681C9.3483 14.2072 9.39567 14.1796 9.44534 14.1337C9.44296 14.1727 9.44411 14.2129 9.43376 14.2508C9.42514 14.2992 9.41896 14.3479 9.41529 14.3968C9.39215 14.46 9.3887 14.5278 9.37598 14.5933C9.37138 14.6094 9.36678 14.6243 9.36218 14.6405L9.35988 14.6749L9.3506 14.6887C9.3437 14.7646 9.32983 14.8404 9.31941 14.9151L9.30554 14.9611C9.29404 15.022 9.28477 15.084 9.2709 15.145C9.2571 15.2058 9.24552 15.3036 9.22935 15.3817C9.21728 15.4248 9.20765 15.4685 9.20046 15.5127C9.18896 15.6173 9.15661 15.7184 9.13699 15.8218L9.12427 15.8563C9.1127 15.9023 9.10235 15.9483 9.09193 15.9954L9.07805 16.0299C9.0723 16.0643 9.06073 16.0988 9.05958 16.1333C9.0769 16.1988 9.11615 16.2551 9.14734 16.3137C9.17854 16.3723 9.22245 16.4482 9.25472 16.5182C9.2926 16.5745 9.3253 16.6335 9.3529 16.6953C9.40832 16.7803 9.44534 16.8757 9.5042 16.9573C9.56307 17.0389 9.59886 17.1319 9.64738 17.2182C9.66743 17.2596 9.68971 17.2999 9.71436 17.3388L9.72134 17.3595C9.77445 17.4377 9.8137 17.525 9.86336 17.6054C9.86796 17.5733 9.87371 17.5411 9.88068 17.5101L9.89455 17.4652C9.898 17.4503 9.90145 17.4342 9.9049 17.4193L9.91533 17.3825L9.92338 17.3744C9.93286 17.3113 9.94595 17.2488 9.96269 17.1871C9.98231 17.1205 9.98806 17.0504 10.0135 16.9849L10.0435 16.8711C10.2005 17.0021 10.3645 17.1262 10.5297 17.2457C10.5759 17.2802 10.6117 17.3262 10.659 17.3584C10.7064 17.3905 10.7734 17.4503 10.8357 17.4894C10.8856 17.5207 10.9314 17.5571 10.9731 17.5986C11.0459 17.6675 11.1348 17.7192 11.2099 17.787C11.263 17.8284 11.3115 17.8766 11.3635 17.9192C11.4016 17.887 11.4374 17.8514 11.4767 17.8203C11.5886 17.7364 11.6914 17.6422 11.8035 17.5583C11.8831 17.4859 11.9767 17.4319 12.0563 17.3607C12.136 17.2894 12.2434 17.2089 12.3416 17.1388C12.456 17.0492 12.5714 16.9607 12.6915 16.8792C12.7031 16.9251 12.7135 16.9699 12.7261 17.0159L12.74 17.0504C12.7493 17.0998 12.7562 17.1504 12.7689 17.1998C12.7977 17.2687 12.8013 17.3446 12.8163 17.4181L12.8278 17.4538C12.8393 17.5032 12.8485 17.5537 12.859 17.6043L12.8763 17.5986C12.8879 17.5676 12.9025 17.5381 12.9202 17.5101C12.9929 17.4124 13.0379 17.2986 13.0992 17.194C13.1604 17.0894 13.2297 16.9573 13.3001 16.8424C13.4294 16.5953 13.5715 16.3551 13.6904 16.1023C13.6766 16.0747 13.6639 16.0471 13.6512 16.0184C13.6177 15.8931 13.5876 15.7655 13.5611 15.6391C13.5415 15.5587 13.5392 15.4759 13.5183 15.3954C13.4976 15.315 13.4895 15.2105 13.4641 15.1208C13.4387 15.0312 13.4376 14.9691 13.4214 14.8932C13.4052 14.8174 13.3994 14.7301 13.3763 14.6508C13.3533 14.5715 13.351 14.4646 13.3255 14.3727C13.3001 14.2808 13.2966 14.2106 13.2886 14.129C13.3474 14.1819 13.4052 14.2359 13.4675 14.283C13.5334 14.3554 13.6131 14.4129 13.6824 14.4818C13.7412 14.5335 13.7932 14.5933 13.8544 14.6416C13.8544 14.7484 13.8672 14.8542 13.8683 14.9611C13.8766 15.0367 13.8801 15.1126 13.8787 15.1886L13.8891 15.2012C13.8891 15.2576 13.8868 15.315 13.896 15.3702C13.9133 15.6069 13.9133 15.8437 13.9156 16.0804C13.9296 16.065 13.9415 16.0482 13.9515 16.0299C13.9688 15.962 14.008 15.9035 14.0438 15.8448C14.1062 15.7368 14.1836 15.6369 14.2436 15.5265C14.3417 15.3909 14.4238 15.2449 14.5138 15.1047C14.5462 15.0599 14.5658 15.007 14.5993 14.9622C14.6697 14.8691 14.6975 14.7542 14.7483 14.6508C14.7598 14.6255 14.7736 14.5991 14.7667 14.5703C14.7598 14.5416 14.7298 14.4945 14.7148 14.4554C14.6998 14.4163 14.672 14.368 14.6558 14.3233C14.6305 14.2313 14.5716 14.1531 14.5416 14.0624L14.5092 13.9946C14.597 13.975 14.6847 13.9543 14.7725 13.9359L14.8199 13.9233C14.8649 13.9118 14.9111 13.9026 14.9573 13.8935C15.0254 13.8716 15.0959 13.8613 15.1663 13.8486L15.2009 13.8348C15.2552 13.8222 15.3095 13.813 15.3627 13.7992L15.3962 13.7866C15.4547 13.7765 15.5125 13.7627 15.5694 13.7452C15.6387 13.7256 15.7091 13.713 15.7784 13.6946L15.895 13.6716L15.9458 13.667C15.8904 13.6027 15.8257 13.551 15.7726 13.4889Z" fill="#202020"/>
</g>
<mask id="mask3_1187_930" style="mask-type:luminance" maskUnits="userSpaceOnUse" x="8" y="9" width="4" height="6">
<path d="M8.39062 9.7666H11.3588V14.4597H8.39062V9.7666Z" fill="#202020"/>
</mask>
<g mask="url(#mask3_1187_930)">
<path d="M13.3174 12.6306C13.4294 12.5398 13.5345 12.4398 13.6523 12.3547C13.6904 12.3283 13.7216 12.2939 13.7562 12.2628C13.8186 12.2065 13.8902 12.1594 13.949 12.0984C14.008 12.0376 14.0796 11.9916 14.1431 11.9352C14.2066 11.8789 14.2585 11.8364 14.3186 11.7904C14.2701 11.7203 14.2089 11.6594 14.1558 11.5928C14.1026 11.5261 14.0265 11.4514 13.9687 11.3756C13.8844 11.2606 13.7758 11.163 13.717 11.0308C13.6881 10.9607 13.6511 10.8941 13.6211 10.824C13.6038 10.786 13.5864 10.7458 13.5541 10.7183C13.4895 10.6596 13.4317 10.5941 13.3624 10.5412C13.2477 10.4363 13.1299 10.3348 13.0091 10.2367C12.9565 10.186 12.9014 10.1381 12.8439 10.093C12.7561 10.0276 12.6753 9.95396 12.5922 9.88392C12.5517 9.85055 12.5067 9.82069 12.4686 9.78388L12.4501 9.78044C12.2331 9.90061 12.0091 10.0059 11.778 10.0965C11.6417 10.1436 11.5136 10.2091 11.3819 10.2666C11.3242 10.2655 11.2745 10.2321 11.2214 10.2148C11.0309 10.1172 10.823 10.0586 10.6324 9.9609C10.5135 9.90225 10.3911 9.8494 10.2767 9.7793C10.0758 9.95517 9.86446 10.1172 9.66465 10.2942C9.56999 10.3677 9.48223 10.4493 9.3921 10.5286C9.32281 10.578 9.26625 10.6412 9.20156 10.6953C9.16081 10.7302 9.13191 10.7731 9.11495 10.824C9.09993 10.8654 9.07571 10.9021 9.05838 10.9423C9.02374 11.0079 9.00297 11.0814 8.9556 11.14C8.84707 11.2768 8.73617 11.4124 8.61837 11.5422C8.55389 11.6242 8.48382 11.7012 8.4082 11.7732L8.41288 11.7881C8.52371 11.8698 8.61959 11.9697 8.72697 12.056C8.78813 12.1007 8.83665 12.1605 8.89674 12.2076C9.01684 12.2984 9.12307 12.4064 9.24778 12.4926C9.37248 12.5788 9.48568 12.6823 9.59421 12.7891C9.68197 12.8661 9.76743 12.9477 9.85986 13.0201C9.84369 13.1362 9.80905 13.2489 9.79173 13.3649C9.76477 13.4633 9.74666 13.5633 9.73746 13.6648C9.81825 13.7327 9.92448 13.7579 10.0158 13.8096L10.0342 13.8568L10.0434 13.9016C10.0712 13.9877 10.0723 14.0808 10.1001 14.1671C10.1127 14.221 10.1254 14.2763 10.1474 14.328C10.1694 14.3797 10.1728 14.4038 10.1843 14.4417C10.2398 14.3854 10.2987 14.3303 10.3506 14.2716C10.3483 14.2245 10.3564 14.1636 10.316 14.1291C10.4315 14.0808 10.5516 14.0441 10.6659 13.9912C10.7802 13.9383 10.9015 13.8878 11.0204 13.8384C11.1175 13.7912 11.2144 13.7453 11.3161 13.7074C11.3403 13.697 11.368 13.681 11.3946 13.697C11.4789 13.735 11.5655 13.7705 11.6498 13.8108C11.7999 13.8775 11.9501 13.9407 12.1014 14.005C12.188 14.043 12.2746 14.0901 12.3705 14.0981C12.3854 14.1636 12.382 14.2314 12.4097 14.2934C12.4374 14.3555 12.4501 14.4049 12.5009 14.4382C12.5471 14.3854 12.5783 14.321 12.6037 14.2567C12.6291 14.1923 12.6337 14.1556 12.6557 14.1085C12.6684 14.02 12.6718 13.9303 12.6834 13.8407C12.7804 13.7694 12.9016 13.7384 12.9975 13.6637C12.9986 13.5924 12.979 13.5246 12.9698 13.4545C12.9398 13.389 12.9363 13.3155 12.9202 13.2453C12.9086 13.2017 12.8913 13.1603 12.8774 13.119C12.8728 13.0948 12.8543 13.0684 12.8601 13.0443C13.0102 12.904 13.1604 12.7627 13.3174 12.6306ZM12.7573 11.6733C12.7053 11.6974 12.6545 11.725 12.6014 11.7445C12.5483 11.764 12.5171 11.741 12.479 11.7583C12.4201 11.8134 12.3762 11.8812 12.3277 11.9445C12.2792 12.0077 12.2272 12.072 12.1752 12.1341C12.179 12.1614 12.1852 12.1882 12.1937 12.2145C12.2076 12.3226 12.2226 12.4317 12.2434 12.5386C12.2457 12.6018 12.2457 12.665 12.2492 12.7282L12.263 12.765C12.2653 12.788 12.293 12.8202 12.2665 12.8385C12.1868 12.8455 12.106 12.8374 12.0263 12.8408C11.9189 12.9489 11.7965 13.0385 11.6891 13.1477C11.5935 13.2576 11.4884 13.3576 11.3738 13.4476C11.3276 13.4108 11.2745 13.3844 11.2317 13.343C11.1683 13.2787 11.1047 13.2166 11.047 13.1477C10.9384 13.0557 10.8449 12.9477 10.7294 12.8649C10.6595 12.8518 10.5891 12.8464 10.5181 12.8489L10.4904 12.8132C10.4892 12.7397 10.4881 12.6673 10.4915 12.5949C10.498 12.5527 10.5015 12.5101 10.5019 12.4674L10.5123 12.457C10.5204 12.3329 10.5504 12.2099 10.5493 12.0847C10.4761 12.033 10.4176 11.9683 10.3738 11.8905C10.3576 11.8628 10.3449 11.8341 10.323 11.8111C10.301 11.7881 10.2398 11.7687 10.1947 11.756C10.1312 11.7376 10.0723 11.71 10.0111 11.687C9.94992 11.664 9.88293 11.6273 9.8171 11.6032C9.79288 11.5951 9.76743 11.587 9.75011 11.5686C9.62426 11.4423 9.52378 11.294 9.40827 11.1584C9.39907 11.1469 9.38635 11.132 9.39562 11.1158C9.43372 11.0423 9.49258 10.9849 9.55037 10.9262C9.58149 10.8918 9.63346 10.8929 9.6681 10.8631C9.73279 10.8596 9.79403 10.8802 9.85634 10.8929L9.9326 10.9159L9.96724 10.9274C10.0377 10.9561 10.1139 10.9665 10.1867 10.9917L10.2686 11.0193L10.3033 11.0308C10.3633 11.055 10.4269 11.0687 10.4892 11.0894L10.5146 11.0929L10.5377 11.117C10.5464 11.1647 10.5576 11.2118 10.5712 11.2584C10.5839 11.3308 10.5931 11.4043 10.6047 11.4767C10.6336 11.5583 10.6312 11.6456 10.6462 11.7284C10.6532 11.7514 10.6578 11.7744 10.6636 11.7985C10.6809 11.9399 10.7017 12.0812 10.7086 12.2237C10.704 12.2651 10.7006 12.3065 10.6925 12.3478C10.6913 12.4501 10.6624 12.5501 10.6636 12.6524C10.9708 12.6512 11.2768 12.657 11.584 12.6536C11.7561 12.6536 11.9281 12.6512 12.1002 12.6536C12.0921 12.6283 12.0852 12.6041 12.0771 12.5788C12.069 12.5535 12.0736 12.5501 12.0725 12.5352C12.0528 12.4398 12.0448 12.3433 12.0332 12.2467C12.0252 12.1731 12.0332 12.0984 12.0482 12.0272C12.0633 11.9559 12.0633 11.8652 12.0817 11.787C12.1001 11.6892 12.1136 11.5908 12.1221 11.4917L12.1314 11.479L12.1349 11.4445C12.1545 11.3411 12.1695 11.2354 12.1926 11.132L12.2053 11.1055C12.2734 11.0756 12.345 11.0596 12.4166 11.0389L12.4386 11.0331L12.4732 11.0205L12.5194 11.0056C12.6695 10.9596 12.8208 10.9171 12.9721 10.8757C13.0171 10.8596 13.0633 10.8768 13.1095 10.878C13.2181 10.9205 13.3232 11.009 13.3324 11.1331C13.322 11.2032 13.2735 11.2584 13.225 11.3066C13.1545 11.3825 13.0934 11.4675 13.0148 11.5353C12.9957 11.5545 12.9784 11.5752 12.9629 11.5974L12.934 11.6066C12.867 11.6077 12.815 11.6479 12.7573 11.6733Z" fill="#202020"/>
</g>
<path d="M10.0929 11.1905C10.0583 11.1423 9.9936 11.1343 9.94401 11.1078C9.86545 11.0687 9.78114 11.0469 9.69568 11.0273C9.65492 11.0473 9.61302 11.0642 9.56982 11.078C9.5883 11.1181 9.61949 11.1504 9.64946 11.1825C9.69568 11.24 9.74189 11.2975 9.78804 11.3549C9.81578 11.3906 9.86085 11.4043 9.90239 11.4181C9.97771 11.4539 10.0558 11.4819 10.1368 11.502C10.1557 11.5072 10.1749 11.5085 10.1943 11.5059C10.2138 11.5033 10.2319 11.497 10.2488 11.4871C10.2488 11.4652 10.2488 11.4434 10.2477 11.4216C10.2073 11.3365 10.1449 11.2676 10.0929 11.1905Z" fill="#202020"/>
<mask id="mask4_1187_930" style="mask-type:luminance" maskUnits="userSpaceOnUse" x="10" y="14" width="2" height="2">
<path d="M10.3042 14.2214H11.3588V15.6697H10.3042V14.2214Z" fill="#202020"/>
</mask>
<g mask="url(#mask4_1187_930)">
<path d="M12.0469 14.6704C11.9811 14.621 11.9199 14.567 11.8541 14.5165C11.7305 14.4234 11.6104 14.321 11.4672 14.2556L11.4326 14.2452L11.3875 14.2314C11.3517 14.2382 11.3167 14.2478 11.2824 14.2602L11.2259 14.2797C11.1254 14.3245 11.0411 14.3946 10.9556 14.4612C10.9095 14.5095 10.8471 14.5371 10.7986 14.5819C10.7142 14.659 10.6173 14.721 10.5307 14.7957C10.4891 14.8313 10.4567 14.8762 10.4163 14.914C10.3759 14.952 10.3598 14.983 10.3551 15.0267C10.3493 15.0666 10.3401 15.1056 10.3274 15.1439C10.3193 15.168 10.3135 15.1933 10.3066 15.2175L10.3621 15.2611C10.4459 15.292 10.5279 15.3273 10.608 15.3668C10.6681 15.3898 10.7293 15.4128 10.7882 15.4392C10.8875 15.4841 10.9938 15.5105 11.0907 15.5599L11.1092 15.5646C11.1889 15.5956 11.2639 15.6357 11.3448 15.6657C11.4106 15.668 11.4672 15.63 11.5261 15.6082C11.7017 15.5278 11.8852 15.4668 12.062 15.3887C12.1463 15.3519 12.2294 15.3128 12.316 15.283C12.3495 15.2689 12.3814 15.252 12.4119 15.2324C12.4061 15.1554 12.3899 15.0807 12.3738 15.006C12.3148 14.8543 12.1648 14.7715 12.0469 14.6704Z" fill="#202020"/>
</g>
</svg>
