<svg width="270" height="70" viewBox="0 0 270 70" fill="none" xmlns="http://www.w3.org/2000/svg">
<rect width="270" height="70" fill="white"/>
<mask id="mask0_1030_13557" style="mask-type:luminance" maskUnits="userSpaceOnUse" x="16" y="0" width="63" height="70">
<path d="M16.1992 0H78.6759V69.8395H16.1992V0Z" fill="white"/>
</mask>
<g mask="url(#mask0_1030_13557)">
<path d="M19.208 16.2512C19.5114 20.2834 20.2235 27.1829 21.8219 34.042C22.9225 38.7714 24.4424 43.4872 26.5277 47.1977C29.6255 52.7129 33.9563 57.0971 38.0355 60.3707C41.7431 63.3467 45.2426 65.4115 47.4439 66.5832C49.6349 65.4185 53.1247 63.3602 56.8321 60.3874C60.9077 57.1173 65.2461 52.7264 68.3535 47.1977C70.4287 43.4942 71.9486 38.7816 73.0458 34.0485C74.6405 27.1864 75.3562 20.2834 75.6594 16.2512C71.6794 14.4264 68.8579 12.0158 66.8712 9.52756C65.0514 7.24928 63.9198 4.90309 63.2249 2.89552H31.6564C30.8351 5.26513 29.4106 8.10565 26.9503 10.7497C25.0555 12.7947 22.5339 14.7276 19.208 16.2512ZM19.0207 34.6788C17.2386 27.0103 16.5262 19.3354 16.2673 15.4421L16.1992 14.4231L17.1499 14.027C20.5233 12.6286 23.0112 10.7735 24.8306 8.81332C27.3049 6.1523 28.5793 3.28127 29.2267 1.06712L29.5299 0.03125H65.3479L65.6549 1.06712C66.217 2.99018 67.253 5.41081 69.1203 7.7469C70.9976 10.0931 73.7411 12.3749 77.7176 14.027L78.6686 14.4231L78.6005 15.4421C78.3413 19.3354 77.6258 27.0167 75.8471 34.6852C74.6985 39.645 73.0869 44.615 70.8618 48.5862C67.5424 54.4936 62.9422 59.1589 58.6316 62.6152C54.3445 66.0549 50.3097 68.3334 48.1019 69.4642L47.4404 69.7994L46.7864 69.4642C44.5649 68.3267 40.5265 66.0417 36.2362 62.5985C31.9186 59.1352 27.3251 54.4769 24.0198 48.5862C21.7876 44.608 20.1724 39.6345 19.0207 34.6788Z" fill="#202020"/>
</g>
<path d="M46.5957 12.651H52.3162C58.3353 12.2953 59.8848 12.2363 60.7791 12.2363H61.7324C73.5917 12.2363 79.79 15.4926 79.79 21.6505C79.79 24.67 78.3601 26.8613 75.5589 28.2819C73.6521 29.229 72.2813 29.8219 68.4074 30.5908C72.2813 31.0644 73.9502 31.6572 76.1556 32.7824C79.7309 34.7354 81.6981 37.992 81.6981 41.7817C81.6981 43.9719 80.9224 46.1631 79.5516 47.7615C76.8705 50.9 73.1154 52.143 65.7857 52.143H46.5957V51.3138C48.443 50.5446 48.979 49.5972 48.979 47.4059V17.3881C48.979 15.1969 48.443 14.2497 46.5957 13.4803V12.651ZM58.6933 29.8803H61.4349C67.811 29.8803 71.0294 27.157 71.0294 21.7094C71.0294 16.7366 67.9308 13.7761 62.8648 13.7761C59.8257 13.7761 58.6933 14.7232 58.6933 17.2691V29.8803ZM58.6933 31.8352V47.3472C58.6933 49.7751 59.8848 50.6633 63.0441 50.6633C64.6533 50.6633 65.9633 50.4264 67.0366 50.012C69.9575 48.7677 72.0432 45.0967 72.0432 41.0712C72.0432 34.9723 68.5262 31.8352 61.6733 31.8352H58.6933Z" fill="#202020"/>
<path d="M119.546 54.8045V56.1067C107.807 51.6663 102.026 45.5082 99.1645 33.9043C98.747 33.963 98.3898 33.963 98.2111 33.963H97.4367C96.7215 33.963 96.1251 33.963 94.9927 33.7851V47.4028C94.9927 49.594 95.5286 50.5412 97.3762 51.3104V52.1396H82.8359V51.3104C84.683 50.5412 85.2192 49.594 85.2192 47.4028V17.3848C85.2192 15.1936 84.683 14.2464 82.8359 13.4771V12.6478H87.4235C88.4376 12.6478 90.2852 12.5888 92.7279 12.411C95.5891 12.2331 98.8666 12.1152 100.833 12.1152C111.859 12.1152 117.878 15.963 117.878 23.0091C117.878 26.0877 116.507 28.93 113.944 30.8246C112.872 31.6538 110.964 32.482 108.283 33.3115C111.62 44.2657 115.733 52.4358 119.546 54.8045ZM94.9927 17.9174V31.9495C95.7684 32.0087 96.3043 32.0687 96.7215 32.0687H97.9727C104.707 32.0687 108.164 28.989 108.164 23.0682C108.164 17.8585 104.111 13.7728 99.1051 13.7728C96.1845 13.7728 94.9927 14.8979 94.9927 17.9174Z" fill="#202020"/>
<path d="M124.549 39.4714L122.046 47.4048C121.866 47.8192 121.807 48.2928 121.807 48.7076C121.807 50.0697 122.701 50.8389 125.264 51.3725V52.1417H115.014V51.3725C117.338 50.721 118.53 49.7138 119.424 47.4048L130.986 12.2939H138.614L149.937 47.4048C150.711 49.5958 151.785 50.8989 153.215 51.3725V52.1417H138.673V51.3725C140.044 50.8989 140.58 50.3063 140.58 49.1223C140.58 48.6487 140.461 48.0564 140.223 47.4048L137.66 39.4714H124.549ZM125.502 37.1022H136.885L131.164 19.6358L125.502 37.1022Z" fill="#202020"/>
<path d="M170.847 52.1434H163.279L151.598 17.3885C150.823 15.1972 149.81 14.0722 148.32 13.4207V12.6514H162.803V13.4207C161.609 13.8943 161.014 14.6647 161.014 15.6709C161.014 16.2034 161.133 16.737 161.371 17.3885L170.669 45.4533L179.549 17.3885C179.668 16.9738 179.728 16.5591 179.728 16.1444C179.728 14.6647 178.893 13.9543 176.33 13.4207V12.6514H186.283V13.4207C184.138 14.0722 182.885 15.1972 182.111 17.3885L170.847 52.1434Z" fill="#202020"/>
<path d="M213.688 12.6514L214.344 20.2301H212.973C211.126 15.9666 208.504 14.1311 203.795 14.1311H200.577C197.776 14.1311 196.644 15.0783 196.644 17.4474V29.2882H202.068C205.881 29.2882 207.788 28.0457 208.205 25.204H209.458V35.3284H208.205C208.026 32.3089 206.298 31.0061 202.068 31.0061H196.644V46.8738C196.644 49.8935 197.717 50.6637 201.709 50.6637H204.63C210.172 50.6637 213.33 48.5314 215.238 43.4984L216.489 43.972L214.344 52.1434H184.486V51.3139C186.334 50.5447 186.87 49.5979 186.87 47.4063V17.3885C186.87 15.1972 186.334 14.2501 184.486 13.4807V12.6514H213.688Z" fill="#202020"/>
<path d="M253.797 54.8045V56.1067C242.057 51.6663 236.276 45.5082 233.415 33.9043C232.997 33.963 232.64 33.963 232.461 33.963H231.687C230.972 33.963 230.375 33.963 229.243 33.7851V47.4028C229.243 49.594 229.779 50.5412 231.627 51.3104V52.1396H217.086V51.3104C218.934 50.5412 219.47 49.594 219.47 47.4028V17.3848C219.47 15.1936 218.934 14.2464 217.086 13.4771V12.6478H221.674C222.688 12.6478 224.535 12.5888 226.978 12.411C229.839 12.2331 233.117 12.1152 235.083 12.1152C246.109 12.1152 252.128 15.963 252.128 23.0091C252.128 26.0877 250.757 28.93 248.195 30.8246C247.123 31.6538 245.215 32.482 242.534 33.3115C245.87 44.2657 249.983 52.4358 253.797 54.8045ZM229.243 17.9174V31.9495C230.018 32.0087 230.554 32.0687 230.972 32.0687H232.223C238.957 32.0687 242.414 28.989 242.414 23.0682C242.414 17.8585 238.362 13.7728 233.355 13.7728C230.435 13.7728 229.243 14.8979 229.243 17.9174Z" fill="#202020"/>
<mask id="mask1_1030_13557" style="mask-type:luminance" maskUnits="userSpaceOnUse" x="37" y="11" width="10" height="11">
<path d="M37.6426 11.9785H46.4521V21.0184H37.6426V11.9785Z" fill="#202020"/>
</mask>
<g mask="url(#mask1_1030_13557)">
<path d="M39.0848 13.6749L39.1774 13.942C39.2746 14.3142 39.4069 14.6732 39.526 15.0365L39.5967 15.2073L39.6143 15.2905C39.6494 15.3691 39.6804 15.4523 39.7069 15.5355L39.8878 15.6187C40.1084 15.6583 40.3336 15.6626 40.5496 15.6976C40.8806 15.7415 41.1938 15.864 41.5202 15.9164C41.8469 15.969 42.2082 16.0566 42.5438 16.1529C42.5791 16.4068 42.6056 16.6652 42.6758 16.9146C42.7465 17.1642 42.7733 17.4752 42.8529 17.7467C42.9318 18.0181 42.9674 18.2718 43.016 18.5345L43.0643 18.6704C43.0997 18.8848 43.1486 19.0993 43.188 19.3139C43.3975 19.413 43.6006 19.5237 43.7968 19.6465C44.3971 20.0099 44.997 20.3733 45.6234 20.6886C45.8572 20.8199 46.1045 20.9383 46.3691 20.9994C46.634 21.0608 46.9205 20.8551 47.181 20.741C47.7102 20.496 48.2 20.1807 48.7119 19.9005C48.9763 19.7384 49.2322 19.5636 49.5017 19.4146C49.6029 19.3524 49.6969 19.2809 49.7838 19.2002C49.8241 18.9168 49.8794 18.6365 49.9518 18.3594C50.0662 17.8953 50.1856 17.4313 50.265 16.9585L50.2914 16.836C50.3357 16.6565 50.3487 16.477 50.3973 16.3018L50.4105 16.1747C50.6222 16.0784 50.856 16.0478 51.0852 16.0039C51.3944 15.9297 51.7076 15.8727 52.0167 15.7895C52.4401 15.6801 52.8813 15.6449 53.3092 15.5486C53.3797 15.2292 53.5077 14.9272 53.5914 14.6074C53.7458 14.1783 53.8562 13.7407 53.9931 13.3072C54.0811 13.119 54.0811 12.878 54.2399 12.7335C54.5534 12.6066 54.8709 12.4841 55.1755 12.3265V11.9893C54.73 12.0681 54.2712 12.0638 53.8252 12.1557C53.3797 12.2476 52.8456 12.2345 52.365 12.3308C51.8842 12.4271 51.4473 12.3878 50.9975 12.4667C50.7502 12.4621 50.5077 12.5278 50.2604 12.5234L50.2118 12.5586L49.8454 12.5761C49.6604 12.6154 49.4706 12.6154 49.29 12.6593C49.1088 12.7029 48.8442 12.6811 48.6236 12.7204C48.1206 12.76 47.6084 12.7774 47.1103 12.8606C46.9205 12.8693 46.7353 12.878 46.55 12.8999C45.8264 12.878 45.1072 12.76 44.3879 12.7291C44.0925 12.6898 43.7879 12.6985 43.5012 12.6197C42.6896 12.5848 41.8909 12.4097 41.0747 12.3834C40.7923 12.3439 40.5099 12.3352 40.232 12.2651C39.8392 12.2389 39.4509 12.1818 39.0583 12.16C38.6172 12.0681 38.1671 12.0419 37.7216 12.0375L37.6641 12.2476C38.0569 12.4885 38.4938 12.6415 38.8864 12.878C38.926 13.1451 39.0187 13.4079 39.0848 13.6749Z" fill="#202020"/>
</g>
<mask id="mask2_1030_13557" style="mask-type:luminance" maskUnits="userSpaceOnUse" x="28" y="15" width="19" height="38">
<path d="M28.5605 15.3594H46.4337V52.3612H28.5605V15.3594Z" fill="#202020"/>
</mask>
<g mask="url(#mask2_1030_13557)">
<path d="M63.2963 35.4749C62.9521 35.1904 62.7182 34.7965 62.3699 34.5159C61.9992 34.1266 61.6153 33.7457 61.2227 33.3782C60.9138 33.0497 60.5831 32.7342 60.2739 32.406C60.3358 32.2393 60.4637 32.1082 60.5434 31.9507C60.7329 31.5959 60.9889 31.2763 61.1741 30.922C61.3593 30.5674 61.5756 30.3437 61.7303 30.0287C61.8848 29.7131 62.0918 29.3981 62.3122 29.1095C62.5552 28.7501 62.7758 28.3783 63.0139 28.0148C63.2256 27.7346 63.3803 27.419 63.6009 27.1433C63.8212 26.8674 64.0596 26.4648 64.3069 26.141L64.2934 26.0708C64.0024 25.9527 63.7507 25.7558 63.4553 25.6461C62.8773 25.331 62.2682 25.0769 61.6771 24.7836C60.9975 24.4464 60.292 24.1748 59.6343 23.803C59.3562 23.6761 59.0786 23.5489 58.7873 23.4395C58.7873 24.0876 58.8929 24.731 58.871 25.379C58.7528 25.2476 58.6442 25.1089 58.5443 24.963C58.324 24.6217 58.0154 24.3459 57.781 24.0133C57.5477 23.6803 57.2472 23.3432 57.0269 22.9755C56.7099 22.5816 56.4159 22.1714 56.1448 21.7453C55.88 21.3819 55.5932 21.0317 55.3413 20.6595C55.1121 20.3703 54.865 20.1079 54.662 19.8056L54.7943 19.7402L54.9093 19.7312L54.953 19.7006C55.0754 19.6807 55.1961 19.6528 55.3149 19.6174C55.5668 19.5562 55.8224 19.5254 56.0649 19.4422C56.4532 19.3678 56.8371 19.254 57.2297 19.1972C57.6225 19.1403 57.9312 19.0265 58.2843 18.9563L58.4034 18.9345C58.5686 18.8901 58.7363 18.8592 58.9067 18.8426C58.9283 19.4117 59.0387 19.9764 59.0476 20.5498C59.1183 21.2504 59.1845 21.9466 59.2288 22.6471C59.2992 22.7786 59.3654 22.923 59.4977 22.9973C59.6303 23.0715 59.8284 23.0803 59.9915 23.1332C60.1551 23.1854 60.4286 23.238 60.6182 23.3607L60.8169 23.3694C60.9079 23.2997 61.0032 23.2369 61.1034 23.1812L61.1477 23.0498C61.0947 22.8441 61.0769 22.6296 61.0372 22.4239C60.9403 22.0342 60.9403 21.6313 60.8477 21.2417C60.8183 21.1148 60.8034 20.9866 60.8034 20.8565L60.7683 20.8082C60.7373 20.3223 60.6317 19.8452 60.5831 19.359C60.5604 19.1058 60.5223 18.8549 60.4681 18.606C60.4376 18.3172 60.4065 18.0283 60.3579 17.7437C60.3182 17.5642 60.164 17.4589 60.0226 17.3582C59.597 17.0085 59.1996 16.6293 58.8313 16.2201C58.5443 15.9617 58.293 15.6728 58.0154 15.4057L57.7505 15.4538C57.2653 15.5852 56.7575 15.6027 56.2858 15.7778L56.1753 15.7953C55.5003 16.001 54.8075 16.15 54.1282 16.3469C53.7486 16.4563 53.3649 16.5573 52.981 16.6492L52.8927 16.6798C52.6899 16.7321 52.4825 16.7717 52.2795 16.811C51.9709 16.9294 51.6266 16.9116 51.3264 17.0606L51.3134 17.2052C51.2427 17.6209 51.1809 18.037 51.075 18.444C51.0575 18.65 51.0089 18.8557 51.0043 19.0614L51.128 19.0876C51.5251 19.3899 51.8737 19.7532 52.2441 20.0858C52.5355 20.3223 52.7822 20.6025 53.0649 20.8477C53.3474 21.0927 53.5415 21.2548 53.7661 21.4695C54.0839 21.754 54.3885 22.0517 54.7281 22.31C55.0678 22.5683 55.4031 22.8045 55.6856 23.1157C55.8357 23.2685 55.9064 23.4704 56.043 23.6319C56.1799 23.7942 56.2501 24.0262 56.3916 24.2057C56.5326 24.3855 56.6873 24.6742 56.8457 24.9017C57.0048 25.1295 57.1373 25.3657 57.3047 25.5806C57.6444 26.0095 57.9225 26.4823 58.2492 26.9204C58.496 27.2397 58.6723 27.6032 58.9283 27.9139C59.1094 28.1196 59.2504 28.3562 59.4137 28.5754C59.2107 28.8158 59.0079 29.0568 58.7962 29.2888C58.3902 29.8009 57.9576 30.2958 57.5302 30.7903C57.1017 31.3552 56.5898 31.85 56.1753 32.4235C55.9415 32.7167 55.6901 32.9881 55.4693 33.2904C55.249 33.5925 55.0192 33.7807 54.8205 34.0478C54.4722 34.4901 54.0928 34.9098 53.7661 35.3697C53.6163 35.6149 53.572 35.8995 53.4578 36.158C53.3738 36.3502 53.3341 36.5562 53.2504 36.7446C53.1179 37.1385 53.0031 37.5413 52.8443 37.9268L52.8309 38.0098L52.7606 38.185C52.7029 38.3646 52.6543 38.5439 52.5884 38.7192L52.5619 38.7981C52.4472 39.1699 52.293 39.529 52.165 39.8968C52.037 40.2648 51.9488 40.5405 51.8429 40.8644L51.7897 40.9912C51.7149 41.254 51.719 41.5254 51.6661 41.7924C51.6485 41.9852 51.6531 42.182 51.6396 42.3791L51.6485 42.3441C51.591 42.9044 51.5999 43.4741 51.463 44.0209C51.2692 43.9509 51.1147 43.8106 50.9427 43.6973C50.7888 43.589 50.6479 43.4663 50.5191 43.3292C49.8746 43.725 49.198 44.0561 48.4895 44.3232C48.0705 44.5335 47.6379 44.6996 47.2148 44.8964C46.9764 44.9842 46.7602 45.1331 46.5088 45.181C46.3365 45.1681 46.1867 45.0806 46.0323 45.0146C45.6529 44.831 45.2468 44.7042 44.8804 44.4982C44.1042 44.1741 43.2923 43.8854 42.617 43.3731C42.3214 43.5613 42.0082 43.7363 41.7347 43.9554C41.6291 43.872 41.5276 43.7931 41.4217 43.7142C41.3685 42.8651 41.3423 42.0156 41.2365 41.1751L41.2009 41.1361V41.0044C41.0599 40.6633 40.9805 40.2953 40.8393 39.9539L40.7465 39.7347C40.6142 39.2969 40.4554 38.8635 40.3055 38.43L40.217 38.2025C40.1422 37.9966 40.0847 37.7866 39.9967 37.5854C39.9656 37.4845 39.9392 37.3792 39.9127 37.2788L39.8511 37.2045C39.8106 37.0365 39.7534 36.8741 39.6789 36.7183C39.5774 36.3766 39.4583 36.0398 39.3392 35.7027C39.2463 35.4356 39.0743 35.2124 38.8891 35.0022C38.6288 34.7041 38.4083 34.3716 38.1437 34.0741C37.6361 33.4915 37.1509 32.8963 36.674 32.2924C35.8932 31.3331 35.077 30.4096 34.2829 29.459C34.0359 29.1661 33.771 28.8858 33.5464 28.5794C33.8242 28.1809 34.1549 27.8218 34.3977 27.4018C34.6183 27.0776 34.861 26.7669 35.0684 26.4343C35.3154 26.0049 35.664 25.6507 35.9153 25.2259C36.1052 24.9588 36.2682 24.6784 36.4713 24.4201C36.674 24.1618 36.8463 23.7984 37.0361 23.4921C37.3096 23.0281 37.7729 22.7344 38.1744 22.393C38.5495 22.1261 38.8448 21.7715 39.2069 21.4913C39.7007 21.0317 40.1994 20.5807 40.6846 20.1123C41.1085 19.7402 41.5054 19.3416 41.9512 19C41.9115 18.7943 41.885 18.5842 41.8497 18.3785C41.7303 17.9407 41.7041 17.4853 41.5891 17.0431C41.3464 16.9686 41.0907 16.9381 40.8437 16.8986C40.5966 16.8593 40.2394 16.7673 39.9392 16.6841C39.529 16.5704 39.114 16.474 38.7036 16.3557L38.5935 16.3077C38.4609 16.2681 38.3243 16.2375 38.192 16.2026C37.9185 16.1019 37.6317 16.0624 37.3582 15.9792C37.0847 15.896 36.7626 15.8349 36.4756 15.7295C36.1108 15.6335 35.7417 15.5577 35.3683 15.502L35.192 15.4538C35.1191 15.4325 35.0459 15.415 34.9712 15.4014C34.6844 15.6114 34.4506 15.8872 34.1949 16.1369C33.8374 16.4828 33.5064 16.8549 33.1268 17.1831C32.9769 17.3058 32.8579 17.4679 32.6948 17.5817C32.6286 17.6384 32.5314 17.6867 32.5401 17.783C32.5358 18.0018 32.5225 18.2209 32.5225 18.4353L32.4874 18.4923C32.4826 18.7286 32.4078 18.952 32.3902 19.1839C32.3638 19.3503 32.3594 19.5167 32.3195 19.6831C32.3144 19.7996 32.2995 19.9148 32.2755 20.0291C32.2093 20.4186 32.1696 20.8169 32.0992 21.2068C32.0284 21.5963 31.9798 21.8678 31.9401 22.2049C31.8991 22.3348 31.8729 22.4677 31.8608 22.6033C31.8343 22.8746 31.7681 23.1462 31.7681 23.422L32.0592 23.2994C32.3945 23.2514 32.7477 23.2468 33.0652 23.1157L33.1624 23.0978L33.4713 23.006L33.5858 22.9622C33.6168 22.5904 33.7094 22.2269 33.7313 21.8547C33.7842 21.3162 33.8771 20.7777 33.9122 20.2347C33.9476 19.6919 33.9784 19.2805 34.0316 18.8074C34.1682 18.8513 34.3094 18.8906 34.4506 18.9302C34.9536 19.0352 35.4566 19.1446 35.9637 19.2409C36.4713 19.3372 37.0936 19.5211 37.6668 19.613L37.7991 19.6657C37.9649 19.7063 38.1326 19.7355 38.3021 19.7532C38.1815 19.93 38.0492 20.0978 37.9052 20.2566C37.5432 20.7602 37.1641 21.246 36.7977 21.7453C36.4319 22.2441 36.0611 22.7393 35.7301 23.2643C35.5757 23.4834 35.3861 23.6803 35.2314 23.899C35.0357 24.1702 34.8237 24.4285 34.5964 24.6742C34.3799 24.915 34.2168 25.1954 33.983 25.4228C33.983 25.0465 34.0491 24.6742 34.102 24.3021C34.1188 24.0095 34.1525 23.7192 34.2035 23.4308C33.7931 23.6148 33.3566 23.7504 32.9683 23.9778C32.58 24.2057 32.121 24.3676 31.6931 24.5562C31.2651 24.7443 30.8107 25.0068 30.3517 25.1996C29.7386 25.4579 29.1651 25.7905 28.5605 26.0621C28.6931 26.2328 28.803 26.421 28.9223 26.6004C29.1429 26.9154 29.3549 27.2354 29.562 27.5547C29.6681 27.7171 29.8093 27.8571 29.9016 28.0278C30.2108 28.6144 30.6341 29.1311 30.9649 29.7045C31.2959 30.2783 31.618 30.786 31.9755 31.3159C32.1518 31.6177 32.3859 31.8848 32.549 32.196C32.58 32.2703 32.6637 32.3446 32.6151 32.4275C32.4782 32.6642 32.2622 32.8351 32.0681 33.0233C31.6799 33.4126 31.2784 33.7936 30.8858 34.1789C30.7313 34.3582 30.5723 34.5334 30.4003 34.7001C30.2283 34.8665 30.0385 35.129 29.8268 35.3129C29.6152 35.497 29.3635 35.812 29.0857 36.0091L29.0725 36.1362C29.2755 36.1709 29.474 36.2234 29.677 36.263C29.8798 36.3023 30.2108 36.3726 30.4754 36.4466L30.6077 36.4951C30.815 36.5389 31.0181 36.5958 31.2254 36.6528C31.4325 36.7096 31.6753 36.7226 31.8872 36.7971C32.3638 36.9417 32.8579 37.0249 33.3433 37.1431L33.5153 37.191C33.7108 37.2228 33.9036 37.2661 34.0931 37.3227C34.2322 37.3604 34.3734 37.3865 34.5167 37.4013C34.1239 38.0493 33.9168 38.7846 33.5464 39.4456C33.4889 39.5465 33.3917 39.6604 33.4667 39.7786C33.6787 40.1725 33.8636 40.5844 34.0445 40.9958C34.4595 41.6129 34.8389 42.2569 35.2314 42.8869C35.6421 43.4302 35.9375 44.0432 36.339 44.5946C36.4742 44.8514 36.6125 45.1067 36.7534 45.3606C36.7715 44.796 36.7583 44.2354 36.7758 43.6709C36.8109 43.3992 36.802 43.1235 36.8244 42.8476C36.8639 42.6508 36.8331 42.4537 36.8814 42.2569C36.917 41.5299 36.9567 40.8076 37.0094 40.0807C37.0229 39.9972 37.0094 39.9014 37.0755 39.84C37.3053 39.5554 37.6007 39.3363 37.8566 39.0781C38.1126 38.8196 38.3286 38.6753 38.5406 38.4432C38.7522 38.2114 38.9334 38.1061 39.1229 37.9314C39.114 38.08 39.1184 38.2329 39.0789 38.3775C39.046 38.5619 39.0222 38.7474 39.0082 38.9338C38.9199 39.1744 38.9067 39.4326 38.8581 39.6822C38.8405 39.7436 38.823 39.8004 38.8054 39.8621L38.7965 39.9932L38.7611 40.0457C38.7347 40.3348 38.6818 40.6234 38.6421 40.908L38.5889 41.0833C38.5451 41.3154 38.5095 41.5515 38.4566 41.7841C38.4039 42.0156 38.3597 42.3883 38.2978 42.6858C38.2517 42.85 38.2149 43.0164 38.1874 43.1849C38.1437 43.5834 38.02 43.9684 37.9449 44.3623L37.8963 44.4936C37.8523 44.6689 37.8126 44.8442 37.7729 45.0238L37.7198 45.1551C37.6979 45.2863 37.6536 45.4176 37.6493 45.549C37.7154 45.7986 37.8653 46.0129 37.9846 46.2364C38.1037 46.4596 38.2716 46.7487 38.3948 47.0153C38.5395 47.2298 38.6645 47.4546 38.7698 47.6899C38.9817 48.0138 39.1229 48.3773 39.3479 48.6883C39.5728 48.9989 39.7097 49.3533 39.8949 49.682C39.9716 49.8398 40.0566 49.9932 40.1508 50.1416L40.1776 50.2204C40.3803 50.5182 40.5305 50.851 40.72 51.1571C40.7378 51.0349 40.7597 50.9121 40.7864 50.7942L40.8393 50.6229C40.8526 50.5664 40.8655 50.505 40.8788 50.4482L40.9187 50.3079L40.9495 50.2773C40.9857 50.0368 41.0356 49.7986 41.0996 49.5635C41.1747 49.3099 41.1965 49.0428 41.2937 48.7933L41.4082 48.3598C42.0082 48.8589 42.6348 49.3317 43.2658 49.7867C43.4424 49.9184 43.579 50.0936 43.7599 50.2161C43.9408 50.3384 44.1971 50.5664 44.4349 50.7153C44.6255 50.8346 44.8005 50.9732 44.9598 51.1313C45.2379 51.3938 45.5776 51.5906 45.8646 51.849C46.0673 52.0068 46.2528 52.1904 46.4513 52.3528C46.5971 52.23 46.7337 52.0943 46.8838 51.9758C47.3115 51.6563 47.7041 51.2974 48.1323 50.9778C48.4366 50.7018 48.7941 50.4961 49.0984 50.225C49.4027 49.9534 49.8131 49.6467 50.1884 49.3796C50.6252 49.0383 51.0661 48.7012 51.5251 48.3905C51.5694 48.5655 51.6091 48.7362 51.6572 48.9114L51.7103 49.0428C51.7457 49.231 51.7722 49.4238 51.8208 49.612C51.9307 49.8745 51.9444 50.1636 52.0019 50.4436L52.0457 50.5796C52.0897 50.7678 52.1248 50.9603 52.165 51.1531L52.2312 51.1313C52.2755 51.0131 52.3311 50.9008 52.3989 50.7942C52.6764 50.4218 52.8484 49.9884 53.0828 49.5899C53.3166 49.1914 53.5812 48.6883 53.8501 48.2505C54.3442 47.309 54.8872 46.3939 55.3413 45.4308C55.2887 45.3258 55.2401 45.2206 55.1915 45.1113C55.0635 44.6339 54.9485 44.1479 54.8472 43.6663C54.7724 43.3599 54.7638 43.0446 54.6839 42.738C54.6048 42.4316 54.5737 42.0334 54.4768 41.6918C54.3796 41.3504 54.3755 41.114 54.3137 40.8248C54.2516 40.5359 54.2294 40.2034 54.1414 39.9014C54.0534 39.5993 54.0448 39.1919 53.9473 38.8419C53.8501 38.4917 53.8369 38.2243 53.8064 37.9134C54.031 38.115 54.2516 38.3207 54.4897 38.5C54.7414 38.776 55.0459 38.9949 55.3108 39.2574C55.5354 39.4544 55.7342 39.6822 55.968 39.8661C55.968 40.2732 56.0168 40.6762 56.0209 41.0833C56.0528 41.3714 56.066 41.6605 56.0606 41.9502L56.1005 41.9981C56.1005 42.213 56.0916 42.4316 56.1267 42.6419C56.1929 43.5435 56.1929 44.4457 56.2018 45.3474C56.2553 45.2889 56.3006 45.2249 56.339 45.1551C56.4048 44.8964 56.5547 44.6735 56.6916 44.45C56.93 44.0386 57.2256 43.6579 57.4549 43.2374C57.8296 42.7208 58.1434 42.1645 58.4871 41.6304C58.611 41.4597 58.6858 41.2583 58.8138 41.0876C59.0827 40.733 59.1888 40.2953 59.3829 39.9014C59.4269 39.805 59.4796 39.7043 59.4534 39.5947C59.4269 39.4851 59.3125 39.3058 59.255 39.1569C59.1977 39.0078 59.0916 38.8239 59.0295 38.6538C58.9328 38.3032 58.7079 38.0052 58.5935 37.6598L58.4695 37.4013C58.8049 37.3267 59.1399 37.2478 59.4755 37.1778L59.6565 37.1299C59.8284 37.086 60.005 37.051 60.1816 37.0163C60.4416 36.9328 60.7111 36.8935 60.98 36.8453L61.1123 36.7926C61.3197 36.7446 61.527 36.7096 61.7303 36.6571L61.8583 36.6089C62.0819 36.5704 62.3027 36.5179 62.5201 36.4512C62.7847 36.3766 63.0539 36.3287 63.3185 36.2584L63.764 36.1709L63.9581 36.1534C63.7464 35.9084 63.4994 35.7113 63.2963 35.4749Z" fill="#202020"/>
</g>
<mask id="mask3_1030_13557" style="mask-type:luminance" maskUnits="userSpaceOnUse" x="35" y="21" width="12" height="19">
<path d="M35.1211 21.2861H46.4611V39.1651H35.1211V21.2861Z" fill="#202020"/>
</mask>
<g mask="url(#mask3_1030_13557)">
<path d="M53.9394 32.2061C54.3671 31.8601 54.7688 31.4791 55.2187 31.155C55.3645 31.0546 55.4835 30.9234 55.6158 30.805C55.8543 30.5904 56.1278 30.4111 56.3524 30.1787C56.5779 29.9469 56.8514 29.7717 57.0938 29.5568C57.3365 29.3425 57.5347 29.1804 57.7645 29.0052C57.579 28.7381 57.3452 28.5063 57.1424 28.2524C56.9391 27.9985 56.6483 27.7139 56.4277 27.4251C56.1056 26.987 55.6906 26.6151 55.466 26.1115C55.3556 25.8444 55.2143 25.5907 55.0996 25.3237C55.0334 25.1789 54.967 25.0258 54.8436 24.921C54.5969 24.6974 54.376 24.4478 54.1111 24.2463C53.6729 23.8467 53.2231 23.46 52.7614 23.0863C52.5605 22.8931 52.3499 22.7107 52.1304 22.5388C51.7948 22.2897 51.4862 22.0092 51.1687 21.7423C51.014 21.6152 50.842 21.5014 50.6964 21.3612L50.6257 21.3481C49.7968 21.8059 48.9409 22.207 48.058 22.5522C47.5374 22.7316 47.0479 22.9811 46.5447 23.2002C46.3243 23.196 46.1345 23.0688 45.9315 23.0029C45.2038 22.631 44.4095 22.4078 43.6813 22.0356C43.2269 21.8122 42.7595 21.6108 42.3224 21.3438C41.5548 22.0138 40.7475 22.631 39.9839 23.3053C39.6224 23.5853 39.2871 23.8962 38.9428 24.1983C38.6779 24.3865 38.4619 24.6273 38.2149 24.8334C38.0591 24.9663 37.9487 25.1298 37.8839 25.3237C37.8264 25.4814 37.734 25.6212 37.6679 25.7743C37.5353 26.0242 37.4559 26.3043 37.275 26.5275C36.8606 27.0487 36.4367 27.5653 35.9866 28.0596C35.7403 28.3722 35.4728 28.6654 35.1836 28.9397L35.2017 28.9966C35.625 29.3078 35.9914 29.6882 36.4016 30.0172C36.6354 30.1874 36.8206 30.4151 37.0501 30.5947C37.5091 30.9407 37.9149 31.3521 38.3915 31.6805C38.8677 32.0087 39.3003 32.4031 39.715 32.8099C40.0501 33.1034 40.3768 33.4141 40.7297 33.6901C40.6681 34.1321 40.5358 34.5616 40.4694 35.0036C40.3665 35.3784 40.2974 35.7594 40.2623 36.146C40.5709 36.4047 40.9767 36.5008 41.3256 36.6976L41.3958 36.8775L41.4311 37.0482C41.5372 37.3761 41.5413 37.7309 41.6477 38.0597C41.6957 38.2648 41.7443 38.4756 41.8283 38.6724C41.9123 38.8695 41.9255 38.9613 41.9692 39.1056C42.1815 38.8913 42.4064 38.6813 42.6045 38.4576C42.5959 38.2783 42.627 38.0462 42.4725 37.9148C42.9137 37.7309 43.3727 37.5909 43.8093 37.3896C44.2459 37.1879 44.7095 36.9957 45.1636 36.8075C45.5346 36.6276 45.9048 36.4526 46.2933 36.3083C46.3859 36.2687 46.4917 36.2076 46.5933 36.2687C46.9154 36.4133 47.2461 36.5487 47.5682 36.7022C48.1417 36.9564 48.7154 37.1971 49.2935 37.4421C49.6245 37.5869 49.9553 37.7662 50.3217 37.7966C50.3786 38.0462 50.3657 38.3047 50.4715 38.5408C50.5774 38.7774 50.6257 38.9656 50.8198 39.0924C50.9964 38.8913 51.1155 38.6458 51.2127 38.4011C51.3096 38.1555 51.3272 38.0158 51.4114 37.8362C51.4597 37.4991 51.4727 37.1575 51.5172 36.8161C51.8877 36.5444 52.3507 36.4265 52.7171 36.1419C52.7214 35.8703 52.6464 35.6118 52.6113 35.3447C52.4968 35.0954 52.4833 34.8154 52.4217 34.5478C52.3775 34.3817 52.3113 34.2239 52.2584 34.0667C52.2408 33.9746 52.1701 33.8739 52.1922 33.7821C52.7657 33.2477 53.3395 32.7092 53.9394 32.2061ZM51.7994 28.5591C51.6007 28.6509 51.4068 28.7561 51.2038 28.8304C51.001 28.9047 50.8817 28.817 50.7361 28.8829C50.5112 29.0929 50.3435 29.3511 50.1581 29.5924C49.9728 29.8331 49.7741 30.0781 49.5757 30.3147C49.59 30.4186 49.6137 30.5207 49.6461 30.6208C49.6993 31.0327 49.7566 31.4484 49.8362 31.8555C49.8449 32.0965 49.8449 32.3372 49.8584 32.5779L49.911 32.7181C49.9197 32.8056 50.0255 32.9284 49.9242 32.9981C49.62 33.0248 49.3111 32.9938 49.0068 33.007C48.5964 33.4187 48.1287 33.7601 47.7183 34.176C47.353 34.5947 46.9515 34.9756 46.5139 35.3186C46.3373 35.1784 46.1345 35.0777 45.9709 34.9202C45.7287 34.6752 45.4857 34.4385 45.2654 34.176C44.8504 33.8255 44.4932 33.4141 44.0517 33.0988C43.7847 33.0487 43.5158 33.0283 43.2447 33.0377L43.1389 32.9017C43.1343 32.6217 43.13 32.3461 43.1429 32.0701C43.1678 31.9094 43.1813 31.747 43.1826 31.5844L43.2223 31.5448C43.2533 31.0721 43.3681 30.6033 43.3638 30.1265C43.0841 29.9294 42.8608 29.6831 42.6934 29.3867C42.6315 29.2811 42.5829 29.1718 42.4992 29.0841C42.4153 28.9966 42.1815 28.9225 42.0089 28.8743C41.7665 28.8041 41.5416 28.6991 41.3077 28.6113C41.0739 28.5238 40.818 28.3841 40.5663 28.2922C40.474 28.2613 40.3768 28.2303 40.3106 28.1603C39.8298 27.6792 39.4458 27.1141 39.0044 26.5976C38.9693 26.5538 38.9207 26.497 38.956 26.4353C39.1018 26.1553 39.3265 25.9366 39.5473 25.713C39.6664 25.582 39.8649 25.5862 39.9972 25.4726C40.2442 25.4593 40.4783 25.5378 40.7164 25.5862L41.0078 25.6738L41.1401 25.7176C41.4093 25.8269 41.7003 25.8665 41.9784 25.9625L42.2913 26.0677L42.4239 26.1115C42.6531 26.2037 42.8961 26.2559 43.1343 26.3348L43.2312 26.3481L43.3195 26.4399C43.3527 26.6216 43.3956 26.801 43.4475 26.9787C43.4961 27.2544 43.5312 27.5344 43.5755 27.8103C43.6859 28.121 43.6767 28.4535 43.734 28.7691C43.7607 28.8568 43.7782 28.9443 43.8004 29.0361C43.8665 29.5749 43.9462 30.1131 43.9724 30.6561C43.9548 30.8136 43.9419 30.9714 43.9108 31.1289C43.9062 31.5184 43.7958 31.8994 43.8004 32.2892C44.9741 32.2847 46.1432 32.3067 47.3169 32.2938C47.9743 32.2938 48.6315 32.2847 49.2889 32.2938C49.2582 32.1974 49.2317 32.1051 49.2006 32.0087C49.1699 31.9123 49.1874 31.8994 49.1831 31.8426C49.108 31.4791 49.0773 31.1116 49.033 30.7436C49.0025 30.4633 49.033 30.1787 49.0902 29.9074C49.148 29.6357 49.148 29.2903 49.2185 28.9922C49.2887 28.6196 49.3402 28.2449 49.3726 27.8674L49.4083 27.8189L49.4215 27.6876C49.4966 27.2937 49.5538 26.891 49.6421 26.497L49.6904 26.3961C49.9507 26.2822 50.2242 26.2212 50.4977 26.1424L50.582 26.1203L50.714 26.0722L50.8906 26.0155C51.4641 25.8403 52.0421 25.6783 52.6202 25.5206C52.7919 25.4593 52.9685 25.5248 53.1451 25.5294C53.5601 25.6913 53.9616 26.0284 53.9967 26.5012C53.957 26.7683 53.7715 26.9787 53.5863 27.1623C53.3171 27.4514 53.0835 27.7751 52.7833 28.0335C52.7104 28.1065 52.6442 28.1854 52.5848 28.2699L52.4747 28.3052C52.2184 28.3092 52.02 28.4624 51.7994 28.5591Z" fill="#202020"/>
</g>
<path d="M41.6116 26.7243C41.4795 26.5407 41.2322 26.5102 41.0429 26.4092C40.7427 26.2603 40.4206 26.1772 40.0942 26.1025C39.9384 26.1787 39.7783 26.2431 39.6133 26.2957C39.6838 26.4484 39.8031 26.5715 39.9176 26.6938C40.0942 26.9128 40.2707 27.1318 40.447 27.3507C40.5529 27.4866 40.7251 27.5389 40.8839 27.5914C41.1715 27.7279 41.4698 27.8345 41.7795 27.9109C41.8516 27.9309 41.925 27.9357 41.999 27.9257C42.0735 27.9161 42.1426 27.8918 42.2072 27.8541C42.2072 27.7707 42.2072 27.6877 42.2031 27.6046C42.0487 27.2804 41.8103 27.0179 41.6116 26.7243Z" fill="#202020"/>
<mask id="mask4_1030_13557" style="mask-type:luminance" maskUnits="userSpaceOnUse" x="42" y="38" width="5" height="6">
<path d="M42.4082 38.2656H46.4374V43.783H42.4082V38.2656Z" fill="#202020"/>
</mask>
<g mask="url(#mask4_1030_13557)">
<path d="M49.0787 39.9749C48.8273 39.7867 48.5935 39.581 48.3421 39.3888C47.8699 39.034 47.4109 38.6439 46.8639 38.3948L46.7316 38.3552L46.5593 38.3027C46.4227 38.3286 46.2888 38.3652 46.1578 38.4123L45.9421 38.4866C45.5579 38.6573 45.2361 38.9244 44.9094 39.178C44.7331 39.3622 44.4949 39.4672 44.3094 39.6379C43.987 39.9316 43.6169 40.1677 43.2859 40.4523C43.1271 40.588 43.0032 40.7592 42.849 40.903C42.6946 41.0478 42.633 41.166 42.6152 41.3324C42.593 41.4845 42.5577 41.6331 42.5093 41.779C42.4783 41.8709 42.4561 41.9672 42.4297 42.0593L42.6419 42.2254C42.9621 42.3431 43.2753 42.4777 43.5812 42.6282C43.811 42.7157 44.0448 42.8032 44.2697 42.9039C44.6491 43.0749 45.0552 43.1755 45.4253 43.3637L45.4961 43.3815C45.8006 43.4997 46.0871 43.6523 46.3963 43.7668C46.6476 43.7757 46.8639 43.6308 47.0888 43.5476C47.7598 43.2415 48.4609 43.0092 49.1362 42.7114C49.4583 42.5714 49.7758 42.4222 50.1066 42.3089C50.2346 42.255 50.3566 42.1907 50.473 42.1161C50.4508 41.8227 50.389 41.5381 50.3275 41.2535C50.102 40.6757 49.5291 40.3602 49.0787 39.9749Z" fill="#202020"/>
</g>
</svg>
