<svg xmlns="http://www.w3.org/2000/svg" width="20" height="20" viewBox="0 0 20 20" fill="none">
    <path d="M9.24933 4.00269C9.102 3.42967 8.76829 2.92193 8.30073 2.55937C7.83317 2.19682 7.25832 2.00006 6.66667 2.00006C6.07501 2.00006 5.50016 2.19682 5.0326 2.55937C4.56504 2.92193 4.23133 3.42967 4.084 4.00269H2V5.33602H4.084C4.23133 5.90904 4.56504 6.41679 5.0326 6.77934C5.50016 7.14189 6.07501 7.33865 6.66667 7.33865C7.25832 7.33865 7.83317 7.14189 8.30073 6.77934C8.76829 6.41679 9.102 5.90904 9.24933 5.33602H18V4.00269H9.24933ZM13.3333 7.33602C12.742 7.33587 12.1674 7.53226 11.6999 7.8943C11.2324 8.25634 10.8985 8.7635 10.7507 9.33602H2V10.6694H10.7507C10.898 11.2424 11.2317 11.7501 11.6993 12.1127C12.1668 12.4752 12.7417 12.672 13.3333 12.672C13.925 12.672 14.4998 12.4752 14.9674 12.1127C15.435 11.7501 15.7687 11.2424 15.916 10.6694H18V9.33602H15.916C15.7682 8.7635 15.4342 8.25634 14.9667 7.8943C14.4992 7.53226 13.9246 7.33587 13.3333 7.33602ZM6.66667 12.6694C6.07536 12.6692 5.50078 12.8656 5.03326 13.2276C4.56575 13.5897 4.23183 14.0968 4.084 14.6694H2V16.0027H4.084C4.23133 16.5757 4.56504 17.0835 5.0326 17.446C5.50016 17.8086 6.07501 18.0053 6.66667 18.0053C7.25832 18.0053 7.83317 17.8086 8.30073 17.446C8.76829 17.0835 9.102 16.5757 9.24933 16.0027H18V14.6694H9.24933C9.10151 14.0968 8.76758 13.5897 8.30007 13.2276C7.83256 12.8656 7.25797 12.6692 6.66667 12.6694Z" fill="#242020" />
</svg>