<svg width="20" height="20" viewBox="0 0 20 20" fill="none" xmlns="http://www.w3.org/2000/svg">
<g clip-path="url(#clip0_3149_2924)">
<path d="M10.0001 20C9.33506 20.0003 8.67885 19.8475 8.08231 19.5534C7.48578 19.2593 6.96495 18.8319 6.56014 18.3042C5.90096 18.3904 5.23078 18.3239 4.60136 18.1099C3.97194 17.896 3.40011 17.5402 2.93003 17.0701C2.45995 16.6 2.10419 16.0282 1.89022 15.3988C1.67625 14.7694 1.60979 14.0992 1.69598 13.44C0.630143 12.6208 0.000976562 11.3542 0.000976562 10C0.000976562 8.64583 0.630143 7.37917 1.69598 6.56C1.60927 5.90071 1.67537 5.23032 1.88916 4.60066C2.10295 3.971 2.4587 3.39895 2.9289 2.92875C3.3991 2.45855 3.97115 2.1028 4.6008 1.88902C5.23046 1.67523 5.90086 1.60913 6.56014 1.69583C7.37931 0.629167 8.64681 0 10.0001 0C11.3535 0 12.621 0.629167 13.4401 1.69583C14.7718 1.51917 16.1135 1.97167 17.071 2.92917C18.0285 3.88667 18.4785 5.22667 18.3043 6.56C19.3701 7.37917 19.9993 8.64583 19.9993 10C19.9993 11.3542 19.3701 12.6208 18.3043 13.44C18.391 14.0993 18.3249 14.7697 18.1111 15.3993C17.8973 16.029 17.5416 16.601 17.0714 17.0712C16.6012 17.5414 16.0291 17.8972 15.3995 18.111C14.7698 18.3248 14.0994 18.3909 13.4401 18.3042C13.0353 18.8319 12.5145 19.2593 11.918 19.5534C11.3214 19.8475 10.6652 20.0003 10.0001 20ZM6.93848 17.39L7.09264 17.6183C7.41326 18.0949 7.84612 18.4854 8.35313 18.7554C8.86014 19.0254 9.42574 19.1666 10.0001 19.1666C10.5746 19.1666 11.1402 19.0254 11.6472 18.7554C12.1542 18.4854 12.587 18.0949 12.9076 17.6183L13.0618 17.39L13.3326 17.4425C13.8961 17.5522 14.4779 17.5218 15.0268 17.354C15.5758 17.1862 16.0752 16.8862 16.481 16.4802C16.8869 16.0743 17.1868 15.5749 17.3545 15.0259C17.5222 14.4769 17.5524 13.8951 17.4426 13.3317L17.391 13.0608L17.6193 12.9067C18.0959 12.5862 18.4864 12.1535 18.7564 11.6467C19.0264 11.1398 19.1676 10.5743 19.1676 10C19.1676 9.4257 19.0264 8.86021 18.7564 8.35333C18.4864 7.84646 18.0959 7.41376 17.6193 7.09333L17.391 6.93917L17.4426 6.66833C17.5535 6.10474 17.524 5.52252 17.3567 4.97302C17.1894 4.42352 16.8895 3.92363 16.4834 3.51743C16.0772 3.11123 15.5774 2.8112 15.0279 2.64379C14.4785 2.47639 13.8963 2.44675 13.3326 2.5575L13.0618 2.61L12.9076 2.38167C12.587 1.90507 12.1542 1.51459 11.6472 1.24461C11.1402 0.974626 10.5746 0.833421 10.0001 0.833421C9.42574 0.833421 8.86014 0.974626 8.35313 1.24461C7.84612 1.51459 7.41326 1.90507 7.09264 2.38167L6.93848 2.61L6.66764 2.5575C6.10412 2.44739 5.52217 2.47748 4.97301 2.64511C4.42385 2.81274 3.9243 3.11279 3.51834 3.51883C3.11237 3.92488 2.81243 4.42448 2.64491 4.97368C2.47739 5.52288 2.44742 6.10483 2.55764 6.66833L2.60931 6.93917L2.38098 7.09333C1.90437 7.41376 1.51387 7.84646 1.24387 8.35333C0.97387 8.86021 0.83265 9.4257 0.83265 10C0.83265 10.5743 0.97387 11.1398 1.24387 11.6467C1.51387 12.1535 1.90437 12.5862 2.38098 12.9067L2.60931 13.0608L2.55764 13.3317C2.44678 13.8953 2.4763 14.4775 2.64359 15.027C2.81089 15.5765 3.11082 16.0764 3.51694 16.4826C3.92306 16.8888 4.42289 17.1888 4.97235 17.3562C5.52181 17.5236 6.10402 17.5532 6.66764 17.4425L6.93848 17.39ZM9.63098 12.1358L14.4585 7.38L13.8743 6.78667L9.04431 11.5442C9.00509 11.583 8.95858 11.6138 8.90744 11.6346C8.85631 11.6554 8.80157 11.6659 8.74636 11.6655C8.69115 11.6652 8.63656 11.6539 8.58573 11.6323C8.53489 11.6108 8.48882 11.5794 8.45014 11.54L6.12264 9.28417L5.54348 9.8825L7.86598 12.1342C7.98179 12.2503 8.11935 12.3424 8.27078 12.4053C8.42222 12.4682 8.58456 12.5007 8.74855 12.5008C8.91253 12.501 9.07494 12.4688 9.22649 12.4062C9.37805 12.3436 9.51494 12.2517 9.63098 12.1358Z" fill="#F13D3D"/>
</g>
<defs>
<clipPath id="clip0_3149_2924">
<rect width="20" height="20" fill="white"/>
</clipPath>
</defs>
</svg>
