<svg width="25" height="25" viewBox="0 0 25 25" fill="none" xmlns="http://www.w3.org/2000/svg">
<g clip-path="url(#clip0_1_2)">
<mask id="mask0_1_2" style="mask-type:luminance" maskUnits="userSpaceOnUse" x="0" y="0" width="25" height="25">
<path d="M25 0H0V25H25V0Z" fill="white"/>
</mask>
<g mask="url(#mask0_1_2)">
<path d="M21.875 0H3.125C1.39911 0 0 1.39911 0 3.125V21.875C0 23.6009 1.39911 25 3.125 25H21.875C23.6009 25 25 23.6009 25 21.875V3.125C25 1.39911 23.6009 0 21.875 0Z" fill="white"/>
<path d="M8.5 21C11.5375 21 14 18.5375 14 15.4999C14 12.4624 11.5375 10 8.5 10C5.46236 10 3 12.4624 3 15.4999C3 18.5375 5.46236 21 8.5 21Z" fill="#04E061"/>
<path d="M17.5 19.3905C19.2259 19.3905 20.6249 17.9914 20.6249 16.2654C20.6249 14.5396 19.2259 13.1405 17.5 13.1405C15.7741 13.1405 14.3749 14.5396 14.3749 16.2654C14.3749 17.9914 15.7741 19.3905 17.5 19.3905Z" fill="#FF4053"/>
<path d="M8.87509 9.75C10.4628 9.75 11.75 8.46286 11.75 6.875C11.75 5.28714 10.4628 4 8.87509 4C7.28723 4 6 5.28714 6 6.875C6 8.46286 7.28723 9.75 8.87509 9.75Z" fill="#965EEB"/>
<path d="M16.7951 12.5649C19.3163 12.5649 21.3601 10.5211 21.3601 8C21.3601 5.47875 19.3163 3.43493 16.7951 3.43493C14.2739 3.43493 12.2301 5.47875 12.2301 8C12.2301 10.5211 14.2739 12.5649 16.7951 12.5649Z" fill="#00AAFF"/>
</g>
</g>
<defs>
<clipPath id="clip0_1_2">
<rect width="25" height="25" fill="white"/>
</clipPath>
</defs>
</svg>
