<svg width="20" height="20" viewBox="0 0 20 20" fill="none" xmlns="http://www.w3.org/2000/svg">
<g clip-path="url(#clip0_3149_2932)">
<path d="M19.5458 5.38643C18.8125 4.22309 18.0483 3.24143 17.2733 2.46643C16.5227 1.72468 15.6988 1.061 14.8142 0.485593C14.2103 0.0827734 13.4776 -0.0794647 12.7601 0.0308047C12.0427 0.141074 11.3925 0.515865 10.9375 1.08143L7.12417 5.82559C6.82037 6.20424 6.65962 6.67779 6.67013 7.16314C6.68065 7.64848 6.86175 8.11462 7.18167 8.47976L0 15.6606V19.9998H2.91667C3.60583 19.9998 4.16667 19.4389 4.16667 18.7498V17.5006H5.83333V15.8339H7.5V14.1673H9.77333L11.3192 12.6373L11.4083 12.7264C11.7665 13.0837 12.2428 13.298 12.7478 13.329C13.2527 13.36 13.7517 13.2056 14.1508 12.8948L18.8683 9.21393C19.4373 8.77464 19.822 8.13899 19.9473 7.43119C20.0725 6.7234 19.9294 5.99432 19.5458 5.38643ZM9.43 13.3331H6.66667V15.0006H5V16.6664H3.33333V18.7489C3.33333 18.8594 3.28943 18.9654 3.21129 19.0436C3.13315 19.1217 3.02717 19.1656 2.91667 19.1656H0.833333V16.0056L7.75833 9.08226L10.6825 12.0948L9.43083 13.3323L9.43 13.3331ZM18.355 8.55643L13.6375 12.2373C13.3989 12.4233 13.1006 12.5157 12.7986 12.4973C12.4966 12.4789 12.2118 12.3509 11.9975 12.1373L7.8425 7.97309C7.63602 7.75677 7.51518 7.47279 7.50246 7.17402C7.48973 6.87524 7.586 6.58202 7.77333 6.34893L11.5867 1.60393C11.912 1.20027 12.3768 0.933093 12.8893 0.855046C13.4019 0.776998 13.9251 0.893736 14.3558 1.18226C15.1933 1.72632 15.9734 2.35398 16.6842 3.05559C17.415 3.78643 18.1408 4.71976 18.8408 5.83059C19.1133 6.26399 19.2146 6.78339 19.1247 7.28741C19.0349 7.79142 18.7605 8.24386 18.355 8.55643ZM12.1442 4.75559L15.2333 7.84476L17.0008 6.07726L13.9117 2.98809L12.1442 4.75559ZM15.2333 6.66643L13.3225 4.75559L13.9117 4.16643L15.8225 6.07726L15.2333 6.66643Z" fill="#F13D3D"/>
</g>
<defs>
<clipPath id="clip0_3149_2932">
<rect width="20" height="20" fill="white"/>
</clipPath>
</defs>
</svg>
