<svg width="172" height="40" viewBox="0 0 172 40" fill="none" xmlns="http://www.w3.org/2000/svg">
<g clip-path="url(#clip0_208:7904)">
<path fill-rule="evenodd" clip-rule="evenodd" d="M20.0305 39.9968C10.205 39.9968 2.26709 32.0072 2.26709 22.2258C2.26709 16.6089 4.83237 11.4277 9.33373 8.0381L9.52734 7.89284V0H19.6917V4.45486C19.7884 4.45486 19.8852 4.45486 19.9821 4.45486C29.7593 4.45486 37.7455 12.4445 37.7455 22.2258C37.7455 32.0072 29.8076 39.9968 20.0305 39.9968Z" fill="#2B6030"/>
<path fill-rule="evenodd" clip-rule="evenodd" d="M14.9028 22.4995L18.5813 18.8679V16.3983L14.9028 20.03V22.4995Z" fill="#FDC537"/>
<path fill-rule="evenodd" clip-rule="evenodd" d="M14.9028 13.3214L18.5813 9.68976V7.36548L14.9028 10.9487V13.3214Z" fill="#FDC537"/>
<path fill-rule="evenodd" clip-rule="evenodd" d="M14.9028 16.3551L18.5813 12.7234V10.3992L14.9028 13.9824V16.3551Z" fill="#FDC537"/>
<path fill-rule="evenodd" clip-rule="evenodd" d="M13.8478 7.36444L13.3638 6.88022V1.16638H12.7829V6.34758L12.2989 5.86334V1.16638H11.7181V5.3307L11.2341 4.84648V1.16638H10.7017V6.6381L14.3802 10.2698V1.16638H13.8478V7.36444Z" fill="#FDC537"/>
<path fill-rule="evenodd" clip-rule="evenodd" d="M14.9028 19.4216L18.5813 15.79V13.4657L14.9028 17.049V19.4216Z" fill="#FDC537"/>
<path fill-rule="evenodd" clip-rule="evenodd" d="M10.7017 18.868L14.3802 22.4997V20.0301L10.7017 16.3984V18.868Z" fill="#FDC537"/>
<path fill-rule="evenodd" clip-rule="evenodd" d="M18.0005 4.84648L17.5165 5.3307V1.16638H16.9841V5.86334L16.5001 6.34758V1.16638H15.9193V6.88022L15.4353 7.36444V1.16638H14.9028V10.2698L18.5813 6.6381V1.16638H18.0005V4.84648Z" fill="#FDC537"/>
<path fill-rule="evenodd" clip-rule="evenodd" d="M10.7017 9.69L14.3802 13.3217V10.949L10.7017 7.36572V9.69Z" fill="#FDC537"/>
<path fill-rule="evenodd" clip-rule="evenodd" d="M10.7017 12.7234L14.3802 16.3551V13.9824L10.7017 10.3992V12.7234Z" fill="#FDC537"/>
<path fill-rule="evenodd" clip-rule="evenodd" d="M10.7017 15.7898L14.3802 19.4215V17.0488L10.7017 13.4656V15.7898Z" fill="#FDC537"/>
<path fill-rule="evenodd" clip-rule="evenodd" d="M32.7183 17.6857H24.1027H23.7156C23.909 17.3951 24.006 17.0562 24.006 16.6688C24.006 15.6035 23.1347 14.7319 22.0699 14.7319C21.005 14.7319 20.1338 15.6035 20.1338 16.6688C20.1338 17.1046 20.2791 17.4921 20.5209 17.7825C20.3758 17.8794 20.2305 18.073 20.2305 18.3152C20.2305 18.5089 20.3274 18.7026 20.5209 18.8478C20.2791 19.1868 20.1338 19.5741 20.1338 19.9616C20.1338 21.0268 21.005 21.8984 22.0699 21.8984C23.1347 21.8984 24.006 21.0268 24.006 19.9616C24.006 19.5741 23.909 19.2352 23.7156 18.9446H25.3612H30.4434V19.3321H29.7657V19.9131H30.4434V20.4942H29.7657V21.608H30.4434V21.1237H31.4114V21.608H32.0889V20.4942H31.4114V19.9131H32.0889V19.3321H31.4114V18.9446H32.7183C32.9601 18.9446 33.2022 18.7509 33.2022 18.4605V18.1699C33.1538 17.9277 32.9601 17.6857 32.7183 17.6857ZM23.0862 19.9616C23.0862 20.4942 22.6507 20.9784 22.0699 20.9784C21.5374 20.9784 21.0534 20.5426 21.0534 19.9616C21.0534 19.7678 21.1017 19.5741 21.1987 19.4288L21.4891 18.9446C21.2954 18.7995 21.1987 18.5573 21.1987 18.3152C21.1987 18.073 21.2954 17.831 21.4891 17.6857L21.1987 17.2015C21.1017 17.0562 21.0534 16.8625 21.0534 16.6688C21.0534 16.1362 21.4891 15.652 22.0699 15.652C22.6023 15.652 23.0862 16.0878 23.0862 16.6688C23.0862 17.0562 22.6023 18.0247 22.6023 18.0247V18.5573C22.6023 18.5573 23.0862 19.5257 23.0862 19.9616Z" fill="#FDC537"/>
<path fill-rule="evenodd" clip-rule="evenodd" d="M7.30371 16.4983V18.9195C7.30371 21.2437 8.32014 22.6964 8.90097 23.2774C9.23978 23.6164 12.6763 27.006 12.7247 27.0544C13.7895 28.1196 13.9831 28.4585 14.2251 29.0397V26.3765C14.2251 24.0037 13.0151 23.0837 12.3859 22.4542C10.9338 21.0501 9.96581 20.13 9.19137 19.3552C7.69093 17.8057 7.30371 16.4983 7.30371 16.4983Z" fill="white"/>
<path fill-rule="evenodd" clip-rule="evenodd" d="M12.3859 28.4336C10.9338 27.0293 9.96581 26.1093 9.19137 25.3345C7.69093 23.8335 7.30371 22.865 7.30371 22.865V24.9472C7.30371 27.2715 8.36855 28.724 8.90097 29.3052C9.23978 29.6441 12.6763 32.9852 12.7247 33.0338C13.7895 34.099 13.9831 34.5832 14.2251 35.1642V32.3557C14.2251 29.9831 13.0151 29.0146 12.3859 28.4336Z" fill="white"/>
<path fill-rule="evenodd" clip-rule="evenodd" d="M20.0373 5.63269C19.7469 5.63269 19.5049 5.63269 19.2628 5.63269V6.79482C19.5049 6.79482 19.7953 6.79482 20.0373 6.79482C28.6043 6.79482 35.5258 13.7192 35.5258 22.29C35.5258 30.8122 28.6043 37.7852 20.0373 37.7852C11.4702 37.7852 4.54879 30.8608 4.54879 22.29C4.54879 17.5446 6.67845 13.2834 10.0666 10.4749V9.02225C6.00083 11.976 3.43555 16.8182 3.43555 22.2416C3.43555 31.3934 10.8894 38.8504 20.0373 38.8504C29.1851 38.8504 36.6391 31.3934 36.6391 22.2416C36.6391 13.0897 29.1851 5.63269 20.0373 5.63269Z" fill="white"/>
<path fill-rule="evenodd" clip-rule="evenodd" d="M31.7314 30.8905C31.9735 30.5516 32.2155 30.1642 32.4575 29.8251V27.5978H31.7314V30.8905Z" fill="white"/>
<path fill-rule="evenodd" clip-rule="evenodd" d="M33.8609 26.7659C33.9576 26.427 34.0543 26.1365 34.1512 25.7976H31.7314V26.3787H32.1185C32.7478 26.3787 33.4736 26.3301 33.8609 26.7659Z" fill="white"/>
<path d="M17.7957 25.6976H17.1665V32.3315H17.7957V25.6976Z" fill="white"/>
<path fill-rule="evenodd" clip-rule="evenodd" d="M15.6644 24.4607H17.8425C18.4233 24.4607 18.8104 24.5574 19.0041 24.7996C19.2461 24.9933 19.3428 25.3806 19.3428 25.9618V32.1597C19.3428 32.7409 19.2461 33.1282 19.0041 33.3219C18.6653 33.6608 18.0361 33.6608 17.5037 33.6608C17.4068 33.6608 17.2616 33.6608 17.1649 33.6608V36.6146C17.3584 36.6631 17.6004 36.7115 17.7941 36.7115V34.2903C18.8104 34.2903 19.4398 33.9514 19.7302 33.2735V36.8083C19.7785 36.8083 19.8753 36.8083 19.9237 36.8083C20.0689 36.8083 20.2141 36.8083 20.311 36.8083V26.0585C20.311 25.4775 20.4077 25.0902 20.6498 24.848C20.8434 24.606 21.2789 24.5091 21.8114 24.5091C22.3922 24.5091 23.1666 24.4122 23.6022 24.848C23.7958 25.0902 23.9411 25.4775 23.9411 26.0585V29.206H22.4405V25.8165H21.8114V36.6631C22.005 36.6146 22.2471 36.6146 22.4405 36.5662V29.884H24.0379V36.2757C24.3283 36.1789 24.667 36.082 24.9574 35.9851V30.1261C24.9574 29.4482 25.1027 28.9639 25.7803 28.7219L25.0058 24.6544H26.5064L26.7484 29.1092H26.9419L27.1839 24.6544H28.7812L27.91 28.7219C28.636 28.9639 28.7329 29.3998 28.7329 30.1261V33.903C29.1684 33.5641 29.6041 33.2251 29.9912 32.8376V24.606H34.3958C34.4442 24.4122 34.4442 24.2185 34.4926 24.0248H24.2315L24.3766 24.7511C24.0379 24.1701 23.4571 23.8795 22.5375 23.8795H21.9081C20.8434 23.8795 20.1657 24.3154 19.9237 25.187C19.6816 24.267 19.0041 23.8312 17.8425 23.8312H15.0352V35.9851C15.2288 36.082 15.4708 36.1304 15.6644 36.2273V24.4607ZM29.3137 29.1092L28.5876 28.4313L29.3137 24.7996V29.1092Z" fill="white"/>
<path fill-rule="evenodd" clip-rule="evenodd" d="M26.5322 35.3055C26.7743 35.2086 26.9679 35.0633 27.2098 34.9664V29.9305H26.5322V35.3055Z" fill="white"/>
</g>
<path d="M42.6162 27.8836V16.0149H48.1899C50.7909 16.0149 52.1946 17.7457 52.1946 19.8475C52.1946 21.908 50.7496 23.6801 48.1899 23.6801H45.176V27.8836H42.6162ZM49.5936 19.8475C49.5936 18.8584 48.8504 18.2403 47.8596 18.2403H45.176V21.4547H47.8596C48.8504 21.4135 49.5936 20.7954 49.5936 19.8475Z" fill="#2B6030"/>
<path d="M52.8169 21.9497C52.8169 18.3232 55.5831 15.8093 59.1337 15.8093C61.7347 15.8093 63.2623 17.2517 64.0881 18.6941L61.8999 19.7656C61.4045 18.8177 60.331 18.0347 59.0924 18.0347C56.9455 18.0347 55.3766 19.6831 55.3766 21.9497C55.3766 24.2163 56.9455 25.8648 59.0924 25.8648C60.331 25.8648 61.4045 25.123 61.8999 24.1339L64.0881 25.1642C63.2211 26.6478 61.7347 28.0902 59.1337 28.0902C55.5831 28.0902 52.8169 25.6175 52.8169 21.9497Z" fill="#2B6030"/>
<path d="M73.0429 27.8839L70.0703 23.5567L67.0564 27.8839H64.0425L68.3363 21.7847L64.2902 16.0151H67.3041L70.029 20.0538L72.7126 16.0151H75.7678L71.7217 21.7847L76.0155 27.8839H73.0429Z" fill="#2B6030"/>
<path d="M85.5109 16.0151V18.2405H79.3593V20.3423H82.4558C84.9742 20.3423 86.378 22.0731 86.378 24.1337C86.378 26.1942 84.9742 27.9251 82.4558 27.9251H76.8408V16.0151H85.5109ZM79.3593 22.5677V25.6585H82.0842C83.0751 25.6585 83.7769 25.0403 83.7769 24.0925C83.7769 23.1446 83.0751 22.5265 82.0842 22.5265H79.3593V22.5677Z" fill="#2B6030"/>
<path d="M102.235 26.2354C103.515 26.2354 104.175 25.6173 104.588 22.1143L105.29 16.0151H113.382V27.8839H111.277V17.8696H107.148L106.653 22.2792C106.074 27.3069 104.547 28.1311 102.235 28.1311V26.2354Z" fill="#2B6030"/>
<path d="M115.527 27.8836V16.0149H117.632V24.2571L123.702 16.0149H125.848V27.8836H123.743V19.4354L117.55 27.8836H115.527Z" fill="#2B6030"/>
<path d="M127.168 26.1532L128.283 24.7933C129.067 25.6999 130.512 26.2357 131.792 26.2357C133.485 26.2357 134.517 25.5351 134.517 24.4224C134.517 23.2685 133.485 22.7327 131.668 22.7327H129.274V20.9195H131.668C133.196 20.9195 134.352 20.4249 134.352 19.3535C134.352 18.2408 133.196 17.6638 131.709 17.6638C130.512 17.6638 129.274 18.1171 128.448 18.9826L127.374 17.6638C128.283 16.5923 129.934 15.8093 131.916 15.8093C134.476 15.8093 136.457 17.0044 136.457 19.0238C136.457 20.5898 135.095 21.5376 133.856 21.7437C135.012 21.8673 136.623 22.774 136.623 24.6284C136.623 26.6478 134.682 28.0902 131.916 28.0902C129.728 28.0902 127.952 27.2247 127.168 26.1532Z" fill="#2B6030"/>
<path d="M138.32 27.8836V16.0149H140.384V24.2571L146.453 16.0149H148.6V27.8836H146.536V19.4354L140.343 27.8836H138.32Z" fill="#2B6030"/>
<path d="M159.044 27.8836V22.6911H152.851V27.8836H150.746V16.0149H152.851V20.8778H159.044V16.0149H161.108V27.8836H159.044Z" fill="#2B6030"/>
<path d="M163.338 27.8836V16.0149H171.471V17.8282H165.402V27.8424H163.338V27.8836Z" fill="#2B6030"/>
<path d="M94.9265 30.3576H94.2246V13.3375H94.9265V30.3576Z" fill="#2B6030"/>
<defs>
<clipPath id="clip0_208:7904">
<rect width="39.9968" height="39.9968" fill="white"/>
</clipPath>
</defs>
</svg>
